<?xml version="1.0" standalone="no"?>
<!DOCTYPE svg PUBLIC "-//W3C//DTD SVG 1.1//EN" "http://www.w3.org/Graphics/SVG/1.1/DTD/svg11.dtd" >
<!--
Copyright (c) 2016, onlinewebfonts.Com
-->
<svg>
<metadata>
Created by FontForge 20120731 at Sun Sep  8 17:38:05 2019
 By www
Copyright (c) 2016, onlinewebfonts.Com
</metadata>
<defs>
<font id="onlinewebfonts" horiz-adv-x="1000" >
  <font-face 
    font-family="onlinewebfonts"
    font-weight="400"
    font-stretch="normal"
    units-per-em="1000"
    panose-1="2 0 5 9 0 0 0 0 0 0"
    ascent="800"
    descent="-200"
    bbox="9.97607 -193.493 990.036 793.493"
    underline-thickness="50"
    underline-position="-100"
    unicode-range="U+E010-E0C8"
  />
    <missing-glyph />
    <glyph glyph-name="uniE010" unicode="&#xe010;" 
d="M113.39 786.79c9.39062 3.25977 23 3.4502 249.95 3.0498c239.021 -0.379883 239.98 -0.379883 245.15 -4.41016c2.87012 -2.10938 7.08984 -6.31934 9.2002 -9.19922c4.01953 -5.1709 4.01953 -7.66016 4.97949 -138.771l0.959961 -133.6l4.21973 -5.94043
c2.31055 -3.25 6.70996 -7.66016 9.59082 -9.58008c5.16992 -3.4502 12.2598 -3.63965 138.96 -4.59961c131.109 -0.950195 133.609 -0.950195 138.779 -4.98047c2.87012 -2.10938 7.08984 -6.31934 9.2002 -9.2002l4.03027 -5.17969v-305.149v-305.15l-4.60059 -9.58008
c-6.13965 -12.0703 -18.9795 -25.0996 -30.4795 -30.2803l-9.00977 -4.21973h-383.36h-383.36l-10.7295 4.99023c-13.0303 6.12988 -23 15.71 -30.0898 29.1299l-5.18066 9.96973v445.65v445.64l4.60059 8.62988c9.78027 18.21 19.1699 26.6504 37.1895 32.7803z
M547.15 356.09c-4.79004 3.64062 -8.24023 4.03027 -44.8506 4.58008c-44.4697 0.379883 -48.1094 -0.379883 -57.5 -12.6504l-5.17969 -6.70996l-0.570312 -51.5596l-0.580078 -51.3701h-48.8799c-54.8203 0 -57.8896 -0.570312 -67.4697 -13.0303l-5.17969 -6.70996
v-41.5898v-41.5898l5.17969 -6.70996c9.58008 -12.46 12.6494 -13.0303 67.4697 -13.0303h49.0703v-49.0693c0 -54.8203 0.570312 -57.8906 13.0303 -67.4707l6.70996 -5.16992h41.79c45.8096 0 46.3799 0.19043 56.1592 13.2305
c3.83008 4.99023 4.03027 8.25 4.60059 56.7402l0.569336 51.5596l51.5605 0.580078c48.5 0.580078 51.7598 0.769531 56.7402 4.59961c13.0293 9.77051 13.2197 10.1504 13.2197 56.3506c0 46.1895 -0.179688 46.5693 -13.2197 56.3496
c-4.99023 3.83008 -8.25 4.02051 -56.7402 4.59961l-51.5605 0.570312l-0.569336 51.5605c-0.570312 48.5 -0.770508 51.7598 -4.60059 56.7393c-2.10938 2.87012 -6.31934 7.09082 -9.19922 9.2002zM687.08 770.88c7.08984 10.3506 6.32031 10.9307 119.04 -101.59
c58.8398 -58.8398 106.76 -108.1 107.72 -110.98c1.33984 -3.83984 1.15039 -6.13965 -0.769531 -8.81934c-2.49023 -3.25977 -7.85059 -3.4502 -105.801 -3.4502h-103.51l-6.70996 5.17969c-13.4199 10.1602 -13.04 7.28027 -13.04 116.92
c0 86.0605 0.390625 98.9102 3.07031 102.74z" />
    <glyph glyph-name="uniE011" unicode="&#xe011;" 
d="M470.86 787.96c11.3096 2.69043 45.2295 2.69043 56.9199 0.180664c17.25 -3.64062 28.75 -20.5 28.75 -42.1602c0 -13.6006 -1.15039 -13.2207 35.0693 -13.2207c24.5303 0 35.46 -0.769531 43.8906 -3.06934c15.1396 -4.2207 26.8301 -14.7607 32.5801 -29.1299
c4.21973 -10.541 4.41016 -13.0303 4.41016 -66.6904c0 -61.3301 -0.19043 -62.8604 -11.6904 -69.7598c-5.75 -3.64062 -10.1602 -3.83008 -160.79 -3.83008s-155.04 0.189453 -160.79 3.83008c-11.3096 6.89941 -11.6904 8.62012 -11.6904 67.8398
c0 46.7598 0.380859 55.2002 3.4502 63.6299c4.41016 12.8398 14.75 24.5303 27.0205 31.0498c9.38965 4.98047 11.1201 5.18066 46.5693 5.75c40.8203 0.770508 38.9004 0 38.9004 14.9502c0 19.5498 11.8799 37.1797 27.4004 40.6299zM137.4 671.63
c8.81934 3.07031 17.4395 3.4502 70.8994 3.66016h60.75v-76.0801c0 -85.2803 0 -85.6602 13.4199 -93.5195c6.70996 -3.83008 9.00977 -3.83008 217.521 -3.83008c208.51 0 210.81 0 217.52 3.83008c13.4102 7.85938 13.4102 8.23926 13.4102 93.5195v76.2803
l63.8203 -0.580078l63.6299 -0.580078l10.9199 -5.37012c12.0801 -5.94043 21.8496 -16.0996 28.75 -29.8994l4.41016 -8.82031l0.569336 -387.51c0.380859 -383.86 0.380859 -387.5 -3.44922 -397.66c-4.60059 -12.2607 -15.9004 -24.3398 -28.3604 -30.6602
l-9.00977 -4.41016h-362.2h-362.21l-9.00977 4.41016c-11.1104 5.55957 -21.2705 15.3301 -27.0205 25.8701l-4.21973 8.0498l-0.570312 387.12c-0.389648 350.899 -0.200195 388.08 2.68066 396.51c6.12988 19.3604 19.54 33.54 37.75 39.6699zM543.3 381.29
c-6.7002 4.41016 -7.85938 4.59961 -43.3096 4.59961s-36.6006 -0.189453 -43.3105 -4.59961c-13.04 -8.82031 -14.1895 -13.6104 -14.7598 -64.7803l-0.580078 -45.6094h-45.2295c-51.1602 0 -54.8105 -0.770508 -63.4307 -13.9902
c-4.97949 -7.66992 -5.17969 -8.42969 -5.75 -43.3105c-0.580078 -40.0596 0.570312 -45.2295 12.8408 -53.2793c6.31934 -4.2207 7.84961 -4.41016 54.0391 -4.41016h47.5303l0.580078 -48.29c0.580078 -54.4199 1.33984 -57.4902 14.9502 -64.2002
c9.96973 -5.16992 76.2695 -5.16992 86.2402 0c13.6094 6.70996 14.3799 9.77051 14.9492 64.2002l0.570312 48.29h47.5303c46.1797 0 47.7197 0.200195 54.04 4.41016c12.2598 8.0498 13.4102 13.2295 12.8398 53.2793c-0.580078 34.8809 -0.770508 35.6406 -5.75 43.3105
c-8.62012 13.2295 -12.2598 13.9902 -63.4297 13.9902h-45.2305l-0.570312 45.6094c-0.579102 51.1699 -1.72949 55.96 -14.7598 64.7803z" />
    <glyph glyph-name="uniE012" unicode="&#xe012;" 
d="M372.19 689.75c20.3193 3.07031 57.1094 0.959961 78.5693 -4.58008c75.7002 -19.5498 133.38 -83.9395 144.69 -161.55c1.53027 -10.1504 2.09961 -31.6201 1.53027 -62.2803c-0.960938 -51.1602 -2.68066 -60.75 -15.1406 -90.6396
c-12.6494 -30.4697 -39.0996 -63.0498 -67.46 -82.9805l-14.9502 -10.3496l0.580078 -17.25l0.570312 -17.25l25.8701 -5.37012c140.47 -29.3203 242.04 -105.4 263.5 -197.39c4.41016 -18.9707 6.13965 -77.04 3.06934 -92.5605
c-2.87988 -13.6094 -11.3096 -25.0996 -24.1494 -32.96l-9.2002 -5.75h-357.59h-357.59l-7.66992 4.02051c-9.77051 5.37012 -17.4307 13.04 -22.8008 22.8096c-3.8291 7.28027 -4.01953 10.3496 -4.01953 51.7402c0 48.0996 1.15039 55.1895 12.6396 82.0098
c23.1904 54.8105 84.3203 108.09 159.63 139.13c34.1104 14.1807 65.54 23.1904 117.66 33.9199c4.03027 0.770508 4.2207 1.7207 4.2207 17.6299v16.8604l-13.8008 9.58008c-30.8496 20.8896 -58.8301 56.3398 -71.8594 90.8398
c-9.58008 25.8701 -12.2598 41.2002 -13.4102 80.4902c-1.71973 55.1895 3.25977 87.5801 18.21 119.58c18.9697 40.4297 48.8604 71.6699 88.1504 91.79c18.21 9.39941 42.7393 17.6396 60.75 20.5098zM808.93 493.52c4.03027 1.7207 14.9502 2.49023 34.6807 2.69043
c32.7695 0 39.0996 -1.91992 45.4199 -13.6104c3.06934 -5.55957 3.4502 -11.3096 3.4502 -45.2295v-38.9004h37.9395c59.0303 -0.189453 60.3701 -1.33984 59.4102 -52.7002l-0.570312 -31.6191l-5.93945 -5.94043c-8.05078 -8.0498 -15.5303 -9.2002 -55.7705 -9.38965
h-35.0703v-39.0898c0 -37.1807 -0.189453 -39.0908 -4.40918 -45.4209c-7.4707 -11.1094 -14.1807 -13.2197 -43.5 -13.2197c-30.0801 0 -38.1309 1.71973 -44.8408 9.77051l-4.97949 5.93945v40.8105v40.8193l-40.8203 0.770508
c-44.4697 0.580078 -47.1494 1.33984 -54.4297 12.46c-2.87988 4.41016 -3.4502 9.78027 -3.4502 37.1797c0 29.5098 0.379883 32.5801 4.02051 37.5605c8.0498 10.9199 13.2295 12.0693 55.96 12.0693h38.71v41c0 39.1006 0.189453 41.21 4.21973 46.1904
c2.2998 2.87988 6.70996 6.33008 9.96973 7.85938z" />
    <glyph glyph-name="uniE013" unicode="&#xe013;" 
d="M490.24 786.87c14.54 7.84961 19.8994 3.63965 55.1094 -44.3896c49.75 -67.5508 45.1602 -49.75 46.5 -186.961l0.959961 -110.989l168.4 -121.9c92.6201 -67.1699 172.04 -125.15 176.44 -128.979c4.7793 -4.02051 10.5195 -11.8701 14.3496 -19.71l6.32031 -12.8203
l0.569336 -70.8105c0.390625 -38.8496 0 -72.7197 -0.569336 -75.21c-1.53027 -6.12988 -7.83984 -11.8691 -13.0107 -11.8691c-2.29004 0 -82.4795 33.4893 -178.35 74.6299l-174.14 74.6299l-0.580078 -112.33l-0.379883 -112.33l30.8096 -31l30.8105 -31
l-0.770508 -21.0498c-0.580078 -19.3301 -0.959961 -21.6299 -5.16992 -26.0303c-2.67969 -2.67969 -7.83984 -5.74023 -11.4805 -6.88965c-9.37988 -2.49023 -262.739 -2.49023 -272.119 0c-3.63086 1.14941 -8.80078 4.20996 -11.4805 6.88965
c-4.20996 4.40039 -4.59961 6.69043 -5.16992 25.8301l-0.770508 20.8604l30.8105 31.1895l30.8096 31.3799l-0.379883 112.141l-0.569336 111.949l-174.141 -74.4395c-95.8701 -40.9502 -176.05 -74.4404 -178.35 -74.4404c-5.16016 0 -11.4805 5.75 -13.0098 11.8701
c-0.570312 2.49023 -0.950195 36.3604 -0.570312 75.21l0.570312 70.8105l6.30957 12.8193c3.83008 7.83984 9.57031 15.6904 14.3496 19.71c4.40039 3.83008 83.8203 61.8105 176.431 128.98l168.399 121.899l0.959961 110.99
c0.959961 106.98 1.15039 111.19 5.16992 121.521c2.10059 5.92969 5.55078 13.5898 7.27051 17.2197c6.50977 12.4404 64.4902 89.9404 69.6602 92.6201z" />
    <glyph glyph-name="uniE014" unicode="&#xe014;" 
d="M51.9199 787.07c7.86035 2.87988 52.5098 3.06934 451.311 2.67969l442.689 -0.379883l9.58008 -4.79004c12.2598 -5.94043 23.7598 -17.4404 29.7002 -29.7002l4.79004 -9.58008v-445.569v-445.561l-4.79004 -9.58008
c-5.94043 -12.2598 -17.4307 -23.7598 -29.7002 -29.7002l-9.58008 -4.79004h-445.56h-445.561l-9.58984 4.79004c-12.2598 5.94043 -23.7598 17.4307 -29.7002 29.7002l-4.79004 9.58008l-0.569336 441.73c-0.390625 400.91 -0.19043 442.689 2.67969 451.119
c6.12988 19.1602 20.1201 33.3408 39.0898 40.0508zM608.83 478.73c-5.16992 4.01953 -6.90039 4.01953 -167.49 4.40918c-177.26 0.580078 -169.22 0.959961 -179.18 -10.7295c-6.90039 -8.24023 -7.48047 -12.8398 -6.70996 -55.1904
c0.580078 -40.25 0.959961 -41.7793 13.7998 -51.1699c5.16992 -4.01953 6.50977 -4.01953 169.79 -4.01953s164.62 0 169.79 4.01953c13.0303 9.77051 13.2197 10.1602 13.2197 56.3398c0 46.1807 -0.189453 46.5703 -13.2197 56.3408zM486.18 233.43
c-5.16992 4.02051 -7.66992 4.02051 -106.17 4.41016c-110.39 0.580078 -108.09 0.770508 -117.859 -10.7295c-6.90039 -8.24023 -7.48047 -12.8408 -6.70996 -55.1904c0.579102 -40.25 0.959961 -41.7803 13.7998 -51.1699
c5.17969 -4.03027 7.2793 -4.03027 108.47 -4.03027s103.3 0 108.47 4.03027c13.0303 9.76953 13.2207 10.1602 13.2207 56.3398s-0.19043 46.5605 -13.2207 56.3398z" />
    <glyph glyph-name="uniE015" unicode="&#xe015;" 
d="M51.9199 787.07c7.86035 2.87988 52.5098 3.06934 451.311 2.67969l442.689 -0.379883l9.58008 -4.79004c12.2598 -5.94043 23.7598 -17.4404 29.7002 -29.7002l4.79004 -9.58008v-445.569v-445.561l-4.79004 -9.58008
c-5.94043 -12.2598 -17.4307 -23.7598 -29.7002 -29.7002l-9.58008 -4.79004h-445.56h-445.561l-9.58984 4.79004c-12.2598 5.94043 -23.7598 17.4307 -29.7002 29.7002l-4.79004 9.58008l-0.569336 441.73c-0.390625 400.91 -0.19043 442.689 2.67969 451.119
c6.12988 19.1602 20.1201 33.3408 39.0898 40.0508zM731.48 478.73c-5.18066 4.01953 -6.90039 4.01953 -167.49 4.40918c-177.26 0.580078 -169.221 0.959961 -179.181 -10.7295c-6.89941 -8.24023 -7.47949 -12.8398 -6.70996 -55.1904
c0.580078 -40.25 0.959961 -41.7793 13.8008 -51.1699c5.16992 -4.01953 6.50977 -4.01953 169.79 -4.01953c163.279 0 164.619 0 169.79 4.01953c13.0293 9.77051 13.2197 10.1602 13.2197 56.3398c0 46.1807 -0.19043 46.5703 -13.2197 56.3408zM731.48 233.43
c-5.18066 4.02051 -7.6709 4.02051 -106.171 4.41016c-110.39 0.580078 -108.09 0.770508 -117.859 -10.7295c-6.90039 -8.24023 -7.48047 -12.8408 -6.70996 -55.1904c0.580078 -40.25 0.959961 -41.7803 13.7998 -51.1699
c5.17969 -4.03027 7.29004 -4.03027 108.47 -4.03027c101.19 0 103.3 0 108.471 4.03027c13.0293 9.76953 13.2197 10.1602 13.2197 56.3398s-0.19043 46.5605 -13.2197 56.3398z" />
    <glyph glyph-name="uniE016" unicode="&#xe016;" 
d="M51.2402 787.43c7.87012 2.87012 52.5498 3.07031 451.64 2.68066l443.01 -0.379883l9.59082 -4.79004c12.2793 -5.9502 23.7793 -17.46 29.7295 -29.7305l4.79004 -9.58984v-445.88v-445.9l-4.79004 -9.58984c-5.9502 -12.2803 -17.4502 -23.79 -29.7295 -29.7305
l-9.59082 -4.78906h-445.89h-445.88l-9.58984 4.78906c-12.2803 5.9502 -23.7803 17.4609 -29.7305 29.7305l-4.79004 9.58984v444.93c0 485.591 -0.769531 448.961 10.9307 466.41c6.3291 9.40039 18.0293 18.0303 30.2998 22.25zM424.44 417.49
c-4.79004 3.63965 -8.24023 4.01953 -44.8701 4.39941c-43.7305 0.580078 -47.5703 -0.189453 -56.5801 -10.7393c-2.69043 -3.26074 -5.56055 -8.82031 -6.14062 -12.2705c-0.569336 -3.4502 -0.949219 -77.8604 -0.569336 -165.7
c0.569336 -157.64 0.569336 -159.56 4.59961 -164.739c9.78027 -13.04 10.1602 -13.2305 56.3799 -13.2305c46.2207 0 46.6006 0.19043 56.3799 13.2305c4.03027 5.17969 4.03027 6.51953 4.03027 169.92c0 163.399 0 164.739 -4.03027 169.92
c-2.09961 2.87988 -6.31934 7.09961 -9.19922 9.20996zM669.92 294.75c-4.79004 3.63965 -8.25 4.03027 -44.8594 4.40039c-43.7207 0.580078 -47.5605 -0.19043 -56.5703 -10.7402c-2.69043 -3.25977 -5.57031 -8.82031 -6.14062 -12.2705
c-0.579102 -3.44922 -0.959961 -50.25 -0.579102 -104.33c0.569336 -95.6992 0.769531 -98.1895 4.59961 -103.369c9.78027 -13.04 10.1602 -13.2305 56.3799 -13.2305c46.21 0 46.5996 0.19043 56.3799 13.2305c4.03027 5.17969 4.03027 7.29004 4.03027 108.55
s0 103.37 -4.03027 108.55c-2.12012 2.87988 -6.33008 7.09961 -9.20996 9.20996z" />
    <glyph glyph-name="uniE017" unicode="&#xe017;" 
d="M51.9199 787.07c7.86035 2.87988 52.5098 3.06934 451.311 2.67969l442.689 -0.379883l9.58008 -4.79004c12.2598 -5.94043 23.7598 -17.4404 29.7002 -29.7002l4.79004 -9.58008v-445.569v-445.561l-4.79004 -9.58008
c-5.94043 -12.2598 -17.4307 -23.7598 -29.7002 -29.7002l-9.58008 -4.79004h-445.56h-445.561l-9.58984 4.79004c-12.2598 5.94043 -23.7598 17.4307 -29.7002 29.7002l-4.79004 9.58008l-0.569336 441.73c-0.390625 400.91 -0.19043 442.689 2.67969 451.119
c6.12988 19.1602 20.1201 33.3408 39.0898 40.0508zM670.15 540.05c-5.16992 4.02051 -6.90039 4.02051 -167.5 4.41016c-174.391 0.570312 -168.83 0.770508 -178.03 -9.2002c-7.46973 -8.24023 -8.24023 -13.6094 -8.24023 -64.2002v-48.6797h-61.3203h-61.3193v-30.6602
v-30.6602h306.62h306.609v30.6602v30.6602h-61.3193h-61.1309l-0.569336 51.5498c-0.580078 48.6807 -0.770508 51.9404 -4.60059 56.9199c-2.10938 2.88086 -6.31934 7.09082 -9.19922 9.2002zM608.83 233.43c-5.16992 4.02051 -7.66992 4.02051 -106.16 4.41016
c-108.28 0.570312 -107.7 0.570312 -116.71 -9.2002c-7.46973 -8.23926 -8.24023 -13.6094 -8.24023 -64.1992v-48.6807h-91.9893h-91.9902v-30.6602v-30.6592h306.62h306.63v30.6592v30.6602h-91.9902h-91.7998l-0.570312 51.5498
c-0.580078 48.6807 -0.769531 51.9404 -4.59961 56.9209c-2.11035 2.87988 -6.32031 7.08984 -9.2002 9.19922z" />
    <glyph glyph-name="uniE018" unicode="&#xe018;" 
d="M51.9199 787.07c7.86035 2.87988 52.5098 3.06934 451.311 2.67969l442.689 -0.379883l9.58008 -4.79004c12.2598 -5.94043 23.7598 -17.4404 29.7002 -29.7002l4.79004 -9.58008v-445.569v-445.561l-4.79004 -9.58008
c-5.94043 -12.2598 -17.4307 -23.7598 -29.7002 -29.7002l-9.58008 -4.79004h-445.56h-445.561l-9.58984 4.79004c-12.2598 5.94043 -23.7598 17.4307 -29.7002 29.7002l-4.79004 9.58008l-0.569336 441.73c-0.390625 400.91 -0.19043 442.689 2.67969 451.119
c6.12988 19.1602 20.1201 33.3408 39.0898 40.0508zM316.39 545.03v61.3193h-30.6592h-30.6602v-306.619v-306.62h30.6602h30.6592v61.3193v61.1299l51.5508 0.580078c48.6797 0.570312 51.9395 0.770508 56.9199 4.60059c2.87988 2.10938 7.08984 6.33008 9.19922 9.2002
c4.02051 5.16992 4.02051 6.51953 4.02051 169.79c0 163.27 0 164.619 -4.02051 169.789c-2.10938 2.88086 -6.3291 7.09082 -9.19922 9.2002c-4.99023 3.83008 -8.24023 4.03027 -56.9199 4.60059l-51.5508 0.580078v61.1299zM623.01 514.37v91.9795h-30.6602h-30.6592
v-306.619v-306.641h30.6592h30.6602v91.9902v91.7998l51.5498 0.580078c48.6807 0.570312 51.9404 0.770508 56.9209 4.59961c2.86914 2.11035 7.08984 6.33008 9.19922 9.2002c4.02051 5.18066 4.02051 7.28027 4.02051 108.471c0 101.189 0 103.3 -4.02051 108.47
c-2.10938 2.87988 -6.33008 7.08984 -9.19922 9.2002c-4.99023 3.83008 -8.25 4.0293 -56.9209 4.59961l-51.5498 0.580078v91.79z" />
    <glyph glyph-name="uniE019" unicode="&#xe019;" 
d="M51.9199 787.07c7.86035 2.87988 52.5098 3.06934 451.311 2.67969l442.689 -0.379883l9.58008 -4.79004c12.2598 -5.94043 23.7598 -17.4404 29.7002 -29.7002l4.79004 -9.58008v-445.569v-445.561l-4.79004 -9.58008
c-5.94043 -12.2598 -17.4307 -23.7598 -29.7002 -29.7002l-9.58008 -4.79004h-445.56h-445.561l-9.58984 4.79004c-12.2598 5.94043 -23.7598 17.4307 -29.7002 29.7002l-4.79004 9.58008l-0.569336 441.73c-0.390625 400.91 -0.19043 442.689 2.67969 451.119
c6.12988 19.1602 20.1201 33.3408 39.0898 40.0508zM424.86 540.05c-4.80078 3.64062 -8.25 4.02051 -44.8506 4.41016c-43.6895 0.580078 -47.5195 -0.19043 -56.5293 -10.7295c-2.68066 -3.25 -5.56055 -8.81055 -6.13086 -12.2607
c-0.569336 -3.4502 -0.949219 -77.8096 -0.569336 -165.58c0.580078 -157.529 0.580078 -159.449 4.59961 -164.62c9.77051 -13.0293 10.1504 -13.2197 56.3398 -13.2197c46.1807 0 46.5703 0.19043 56.3398 13.2197c4.02051 5.1709 4.02051 6.52051 4.02051 169.79
c0 163.271 0 164.62 -4.02051 169.79c-2.10938 2.88086 -6.3291 7.09082 -9.19922 9.2002zM670.15 540.05c-4.79004 3.64062 -8.24023 4.02051 -44.8408 4.39062c-43.6895 0.579102 -47.5293 -0.19043 -56.5293 -10.7305
c-2.68066 -3.25 -5.56055 -8.80957 -6.12988 -12.2598c-0.580078 -3.4502 -0.959961 -50.21 -0.580078 -104.25c0.580078 -95.6201 0.769531 -98.1201 4.59961 -103.29c9.77051 -13.0303 10.1602 -13.2197 56.3398 -13.2197c46.1807 0 46.5605 0.189453 56.3398 13.2197
c4.02051 5.17969 4.02051 7.28027 4.02051 108.47c0 101.19 0 103.3 -4.02051 108.47c-2.10938 2.88086 -6.31934 7.09082 -9.19922 9.2002z" />
    <glyph glyph-name="uniE01A" unicode="&#xe01a;" 
d="M51.9199 787.07c7.86035 2.87988 52.5098 3.06934 451.311 2.67969l442.689 -0.379883l9.58008 -4.79004c12.2598 -5.94043 23.7598 -17.4404 29.7002 -29.7002l4.79004 -9.58008v-445.569v-445.561l-4.79004 -9.58008
c-5.94043 -12.2598 -17.4307 -23.7598 -29.7002 -29.7002l-9.58008 -4.79004h-445.56h-445.561l-9.58984 4.79004c-12.2598 5.94043 -23.7598 17.4307 -29.7002 29.7002l-4.79004 9.58008l-0.569336 441.73c-0.390625 400.91 -0.19043 442.689 2.67969 451.119
c6.12988 19.1602 20.1201 33.3408 39.0898 40.0508zM806.98 514.37l0.00976562 30.6602h-306.62h-306.62v-30.6602v-30.6602h61.3203h61.1299l0.580078 -51.5498c0.580078 -48.6797 0.769531 -51.9404 4.59961 -56.9199c2.11035 -2.87988 6.33008 -7.08984 9.2002 -9.2002
c5.16992 -4.02051 6.50977 -4.02051 169.79 -4.02051s164.62 0 169.79 4.02051c2.87012 2.11035 7.08984 6.32031 9.2002 9.2002c3.8291 4.99023 4.0293 8.24023 4.59961 56.9199l0.570312 51.5498h61.1299h61.3203v30.6602zM806.98 207.75l0.00976562 30.6602h-306.62
h-306.62v-30.6602v-30.6602h61.3203h61.1299l0.580078 -51.5498c0.580078 -48.6797 0.769531 -51.9404 4.59961 -56.9199c2.11035 -2.87988 6.33008 -7.08984 9.2002 -9.2002c5.16992 -4.03027 6.50977 -4.03027 169.79 -4.03027s164.62 0 169.79 4.03027
c2.87012 2.11035 7.08984 6.32031 9.2002 9.2002c3.8291 4.97949 4.0293 8.24023 4.59961 56.9199l0.570312 51.5498h61.1299h61.3203v30.6602z" />
    <glyph glyph-name="uniE01B" unicode="&#xe01b;" 
d="M368.93 689.36c7.86035 3.05957 25.4902 1.71973 33.7207 -2.31055c3.83008 -1.72949 17.8193 -14.1797 30.8496 -27.5996c60.3701 -61.5098 62.6699 -64.96 62.8604 -86.8105c0 -10.3496 -0.950195 -14.5596 -5.16992 -22.4199
c-3.64062 -6.51953 -39.0908 -45.04 -107.891 -116.71c-56.3398 -58.8301 -107.89 -112.68 -114.6 -119.58l-12.0703 -12.6494l117.09 -122.271c64.3906 -67.2695 119.011 -125.91 121.311 -130.13c5.93945 -11.2998 5.75 -33.3398 -0.19043 -44.8398
c-5.93945 -11.1201 -77.8096 -85.8604 -87.5801 -91.0303c-11.4902 -6.12988 -31.8096 -5.74023 -42.54 0.580078c-11.6895 6.89062 -344.58 355.11 -349.75 365.65c-7.47949 15.8994 -6.51953 35.4502 2.87012 49.25c5.56055 8.0498 331.351 348.41 339.21 354.35
c3.4502 2.5 8.81055 5.37012 11.8799 6.52051zM859.54 689.36c8.42969 2.87012 20.1201 2.67969 30.0703 -0.59082c6.89941 -2.48926 13.7998 -8.23926 33.54 -28.3594c61.1396 -62.2803 63.6299 -65.7305 63.8193 -87.7705
c0 -10.3496 -0.950195 -14.5596 -5.16992 -22.4199c-3.63965 -6.51953 -39.0898 -45.04 -107.89 -116.71c-56.3398 -58.8301 -107.891 -112.68 -114.601 -119.58l-12.0693 -12.6494l117.27 -122.471c64.3906 -67.2598 119.011 -125.899 121.12 -130.119
c5.94043 -11.1104 5.75 -33.3408 -0.189453 -44.6504c-5.94043 -11.1201 -77.8105 -85.8604 -87.5801 -91.0303c-11.4902 -6.12988 -31.8105 -5.74023 -42.54 0.580078c-11.6904 6.89062 -344.58 355.11 -349.75 365.65c-7.4707 15.71 -6.51074 35.4502 2.87988 49.25
c5.55957 8.0498 331.35 348.41 339.21 354.35c3.4502 2.5 8.80957 5.37012 11.8799 6.52051z" />
    <glyph glyph-name="uniE01C" unicode="&#xe01c;" 
d="M104.08 687.79c12.2695 5.9502 29.5195 5.37012 41.0303 -1.52051c9.96973 -5.94922 344.3 -355.039 349.67 -365.01c6.13965 -11.5 5.9502 -33.3496 -0.570312 -45.4297c-6.91016 -12.8496 -337.979 -358.11 -348.14 -362.9
c-10.7402 -4.98926 -23.5801 -5.75 -34.7002 -2.10938c-8.0498 2.67969 -13.6104 7.2793 -34.5098 28.5596c-61.1602 62.2998 -63.6504 65.75 -63.8408 87.7998c0 10.3506 0.960938 14.5703 5.18066 22.6201c3.63965 6.52051 38.1494 43.71 105.05 113.681
c55.0195 57.3193 106.59 111.189 114.64 119.819l14.9502 15.5205l-117.12 122.3c-64.6094 67.29 -119.05 125.76 -121.35 130.17c-5.94043 11.1201 -5.75 33.1699 0.189453 44.6699c2.49023 4.41016 21.2705 25.8799 42.1709 47.7402
c28.75 30.0996 40.0693 40.6396 47.3496 44.0898zM594.84 687.79c12.2705 5.9502 29.5303 5.37012 41.0205 -1.54004c9.96973 -5.9502 344.3 -355.04 349.67 -365.01c6.13965 -11.5 5.9502 -33.3506 -0.570312 -45.4307
c-3.05957 -5.93945 -62.8799 -69.7793 -172.34 -183.84c-180.01 -187.67 -175.98 -183.84 -194.96 -183.84c-16.6797 0 -23.5801 4.21973 -50.04 31.25c-61.1602 62.2998 -63.6504 65.75 -63.8398 87.7998c0 10.3506 0.959961 14.5703 5.37012 22.6201
c3.44922 6.52051 37.96 43.71 104.859 113.681c55.0205 57.3193 106.59 111.189 114.641 119.619l14.96 15.7207l-117.32 122.3c-64.4199 67.29 -118.86 125.95 -121.16 130.17c-5.93945 11.1201 -5.75 33.1699 0.19043 44.6699
c2.48926 4.41016 21.2793 25.8799 42.1699 47.7402c28.75 30.0996 40.0693 40.6396 47.3496 44.0898z" />
    <glyph glyph-name="uniE01D" unicode="&#xe01d;" 
d="M51.9199 787.07c7.86035 2.87988 52.5098 3.06934 451.311 2.67969l442.689 -0.379883l9.58008 -4.79004c12.2598 -5.94043 23.7598 -17.4404 29.7002 -29.7002l4.79004 -9.58008v-445.569v-445.561l-4.79004 -9.58008
c-5.94043 -12.2598 -17.4307 -23.7598 -29.7002 -29.7002l-9.58008 -4.79004h-445.56h-445.561l-9.58984 4.79004c-12.2598 5.94043 -23.7598 17.4307 -29.7002 29.7002l-4.79004 9.58008l-0.569336 441.73c-0.390625 400.91 -0.19043 442.689 2.67969 451.119
c6.12988 19.1602 20.1201 33.3408 39.0898 40.0508zM440.95 540.63c-8.43066 5.5498 -18.2002 5.5498 -27.21 0c-8.62012 -5.16992 -211.95 -217.51 -216.55 -226.13c-4.2207 -7.86035 -4.2207 -19.7402 0 -27.5996c4.79004 -9 213.1 -226.131 220.189 -229.58
c7.48047 -3.64062 16.4805 -3.64062 23.1904 -0.19043c7.85938 4.03027 50.5996 47.9102 55.5801 57.1104c4.79004 9.00977 5.35938 18.0098 1.5293 27.0195c-1.54004 3.4502 -35.46 40.4307 -75.6992 82.21c-40.0605 41.9707 -73.0205 76.6602 -73.0205 77.2305
c0 0.569336 32.3896 34.8799 72.0596 76.2695c39.6709 41.4004 73.4004 77.8105 74.7402 81.2607c3.4502 8.0498 3.4502 16.2891 -0.189453 24.7197c-3.26074 7.84961 -44.2705 51.3594 -54.6201 57.6797zM747.58 540.63c-8.44043 5.5498 -18.21 5.5498 -27.21 0
c-8.62012 -5.16992 -211.95 -217.51 -216.55 -226.13c-4.2207 -7.86035 -4.2207 -19.7402 0 -27.5996c4.79004 -9 213.1 -226.131 220.189 -229.58c7.48047 -3.64062 16.4805 -3.64062 23.1904 -0.19043c7.85938 4.03027 50.5996 47.9102 55.5801 57.1104
c4.79004 9.00977 5.35938 18.0098 1.5293 27.0195c-1.54004 3.4502 -35.46 40.4307 -75.6992 82.21c-40.0508 41.9707 -73.0107 76.6602 -73.0107 77.2305c0 0.569336 32.3809 34.8799 72.0508 76.2695c39.6699 41.21 73.3994 77.8105 74.7393 81.2607
c3.4502 8.0498 3.4502 16.2891 -0.189453 24.7197c-3.25977 7.84961 -44.2705 51.3594 -54.6201 57.6797z" />
    <glyph glyph-name="uniE01E" unicode="&#xe01e;" 
d="M510.25 724.09c6.7002 5.74023 12.6299 5.94043 22.2002 1.15039c7.64941 -3.83008 427.79 -372.86 442.91 -388.94c11.1094 -11.6699 15.8896 -25.6396 14.3594 -41.3398c-2.29004 -21.8203 6.51074 -13.4004 -228.729 -221.25
c-119.43 -105.47 -221.07 -194.09 -226.05 -196.96c-4.78027 -2.87012 -11.1006 -5.36035 -13.9707 -5.36035c-7.66016 0 -16.0801 8.04004 -18.5693 17.9902c-1.34082 5.92969 -2.11035 43.4404 -2.11035 117.71v109.29l-224.33 0.379883l-224.52 0.570312
l-10.9102 5.36035c-13.4004 6.50977 -23.7305 18 -27.3701 30.8193c-4.20996 14.1699 -4.20996 279.08 0 293.24c3.63965 12.8301 13.9697 24.3096 27.3701 30.8203l10.9102 5.35938l224.52 0.570312l224.33 0.379883v109.28c0 74.2695 0.769531 111.79 2.11035 117.72
c1.33984 5.36035 4.39941 10.3398 7.84961 13.21z" />
    <glyph glyph-name="uniE01F" unicode="&#xe01f;" 
d="M361.32 788.62c3.05957 0.959961 66.8301 1.53027 141.529 1.33984c129.65 -0.379883 136.16 -0.570312 141.33 -4.02051c7.86035 -5.35938 12.4502 -12.6396 15.71 -25.2793c2.49023 -9.58008 2.87012 -38.6904 2.87012 -213.73v-202.62h113.95
c125.25 0 122.181 0.19043 128.311 -11.4893c3.63965 -7.08984 3.63965 -15.9004 -0.19043 -23.5605c-1.73047 -3.43945 -76.7998 -117.01 -167 -252.6l-164.13 -246.47l-73.9199 -0.19043h-74.1104l-40.79 61.6699c-22.4102 34.0898 -97.0996 146.5 -165.85 250.11
c-82.7402 124.479 -125.25 190.359 -126.21 194.96c-1.91992 9.95996 1.33984 18.1895 8.62012 23.1699l6.50977 4.39941h113.56h113.561l0.580078 207.41c0.580078 206.641 0.580078 207.21 4.59961 215.83c4.79004 10.1504 13.4102 18.5801 21.0703 21.0703z" />
    <glyph glyph-name="uniE020" unicode="&#xe020;" 
d="M491.7 787.86c5.5498 3.05957 13.5898 2.87012 20.29 -0.760742c4.59961 -2.2998 46.9102 -64.5195 180.91 -266.1c96.29 -144.92 176.31 -265.91 178.06 -269.36c1.71973 -3.25 3.25 -9.37988 3.25 -13.5898c0 -6.12988 -1.15039 -8.60938 -6.12988 -13.0195
l-5.92969 -5.36035h-106.25h-106.25v-188.95c0 -124.239 -0.760742 -191.63 -1.91016 -196.22c-2.68066 -9.19043 -10.5303 -18.5703 -18.5703 -21.8203c-4.97949 -2.10938 -29.4902 -2.67969 -128.65 -2.67969c-82.1299 0 -124.239 0.759766 -127.88 2.09961
c-7.65918 2.87012 -13.9795 9.19043 -18 18c-3.44922 7.27051 -3.63965 17.04 -3.63965 198.71v190.86h-106.06h-106.061l-5.74023 4.79004c-6.69922 5.5498 -8.80957 12.8301 -6.31934 21.0596c1.91992 7.08008 350.14 530.66 356.46 536.211
c2.47949 2.2998 6.30957 4.97949 8.41992 6.12988z" />
    <glyph glyph-name="uniE021" unicode="&#xe021;" 
d="M467.7 725.61c3.4502 1.71973 8.62012 3.25977 11.4902 3.23926c7.65918 0 16.0801 -8.03906 18.5693 -18c1.33984 -5.93945 2.11035 -43.46 2.11035 -117.75v-109.319l224.58 -0.379883l224.39 -0.570312l10.9102 -5.36035
c6.12012 -3.05957 13.9697 -9 17.7998 -13.3994c12.6406 -14.7402 12.4502 -11.8701 12.4502 -164.271c0 -152.59 0.19043 -149.14 -12.8301 -164.27c-3.43945 -4.20996 -11.29 -9.95996 -17.4199 -13.0205l-10.9102 -5.35938l-224.39 -0.570312l-224.58 -0.379883v-109.311
c0 -74.29 -0.770508 -111.819 -2.11035 -117.75c-2.49023 -9.58008 -10.9102 -18 -18.1895 -18c-2.68066 0 -7.85059 1.7207 -11.8701 3.64062c-10.3398 5.35938 -443.99 388.08 -449.351 396.7c-6.31934 9.75977 -9.37988 22.9697 -8.04004 34.46
c2.49023 21.4395 -5.5498 13.5898 231.28 222.659c120.811 106.641 222.47 195.29 226.11 197.011z" />
    <glyph glyph-name="uniE022" unicode="&#xe022;" 
d="M355.41 788.03c8.42969 2.48926 279.91 2.67969 288.91 0.200195c13.9893 -4.03027 24.9102 -13.4102 32.1895 -27.5908l6.70996 -13.2197l0.570312 -223.77l0.379883 -223.96h110.74c69.54 0 113.22 -0.770508 117.63 -1.9209
c3.83008 -1.14941 9.38965 -4.78906 12.0703 -8.0498c6.12988 -7.2793 5.75 -15.3301 -1.53027 -26.25c-2.49023 -3.83008 -91 -104.989 -196.57 -224.92c-215.149 -244.08 -199.439 -228.18 -226.26 -228.37c-26.25 0 -11.2998 -15.1299 -228.37 230.67
c-109.59 124.341 -195.22 222.811 -197.14 227.221c-1.91992 4.21973 -3.64062 9.58008 -3.64062 11.8799c0 6.12988 8.81055 15.5195 16.8604 17.8096c4.40039 1.15039 48.0801 1.91992 117.63 1.91992h110.74l0.379883 223.96l0.570312 223.771l6.70996 13.2197
c7.08984 13.7998 18.2002 23.5703 31.4199 27.4004z" />
    <glyph glyph-name="uniE023" unicode="&#xe023;" 
d="M113.17 787.17c7.66992 2.87012 46.96 3.07031 390.05 2.67969l381.44 -0.379883l9.58008 -4.79004c12.2695 -5.93945 23.7695 -17.4395 29.71 -29.71l4.79004 -9.58008v-445.649v-445.65l-4.79004 -9.58008c-5.94043 -12.2695 -17.4404 -23.7695 -29.71 -29.71
l-9.58008 -4.79004h-384.311h-384.31l-9.58008 4.79004c-12.2695 5.94043 -23.7695 17.4404 -29.71 29.71l-4.79004 9.58008l-0.570312 441.811c-0.379883 400.989 -0.189453 442.77 2.68066 451.21c6.12988 19.1699 20.1201 33.3496 39.0996 40.0596zM608.85 601.43
c-5.17969 4.03027 -6.89941 4.03027 -167.52 4.41016c-177.3 0.580078 -169.25 0.959961 -179.22 -10.7295c-6.90039 -8.24023 -7.48047 -12.8408 -6.70996 -55.2002c0.569336 -40.2598 0.959961 -41.79 13.7998 -51.1797
c5.17969 -4.03027 6.51953 -4.03027 169.83 -4.03027c163.3 0 164.64 0 169.819 4.03027c13.04 9.76953 13.2305 10.1592 13.2305 56.3496c0 46.1895 -0.200195 46.5703 -13.2305 56.3496zM731.52 417.42c-5.16992 4.03027 -6.31934 4.03027 -228.859 4.41016
c-244.19 0.580078 -230.58 1.15039 -240.55 -10.7305c-6.90039 -8.23926 -7.48047 -12.8398 -6.70996 -55.1992c0.569336 -40.2607 0.959961 -41.79 13.7998 -51.1807c5.16992 -4.0293 5.93945 -4.0293 231.16 -4.0293c225.22 0 225.989 0 231.159 4.0293
c13.04 9.77051 13.2305 10.1602 13.2305 56.3506c0 46.1895 -0.19043 46.5693 -13.2305 56.3496zM608.85 233.42c-5.17969 4.02051 -6.89941 4.02051 -167.52 4.41992c-177.3 0.580078 -169.25 0.959961 -179.22 -10.7295c-6.90039 -8.25 -7.48047 -12.8506 -6.70996 -55.21
c0.569336 -40.2607 0.959961 -41.79 13.7998 -51.1807c5.17969 -4.0293 6.51953 -4.0293 169.83 -4.0293c163.3 0 164.64 0 169.819 4.0293c13.04 9.77051 13.2305 10.1602 13.2305 56.3506c0 46.1895 -0.200195 46.5693 -13.2305 56.3496z" />
    <glyph glyph-name="uniE024" unicode="&#xe024;" 
d="M113.17 787.17c7.66992 2.87012 46.96 3.07031 390.05 2.67969l381.44 -0.379883l9.58008 -4.79004c12.2695 -5.93945 23.7695 -17.4395 29.71 -29.71l4.79004 -9.58008v-445.649v-445.65l-4.79004 -9.58008c-5.94043 -12.2695 -17.4404 -23.7695 -29.71 -29.71
l-9.58008 -4.79004h-384.311h-384.31l-9.58008 4.79004c-12.2695 5.94043 -23.7695 17.4404 -29.71 29.71l-4.79004 9.58008l-0.570312 441.811c-0.379883 400.989 -0.189453 442.77 2.68066 451.21c6.12988 19.1699 20.1201 33.3496 39.0996 40.0596zM670.19 540.1
c-5.18066 4.02051 -6.90039 4.02051 -167.521 4.41016c-177.3 0.580078 -169.25 0.959961 -179.22 -10.7295c-6.90039 -8.24023 -7.48047 -12.8398 -6.70996 -55.2002c0.569336 -40.2598 0.959961 -41.79 13.7998 -51.1797
c5.17969 -4.03027 6.51953 -4.03027 169.83 -4.03027c163.3 0 164.649 0 169.82 4.03027c13.04 9.76953 13.2295 10.1592 13.2295 56.3496s-0.189453 46.5703 -13.2295 56.3496zM670.19 356.09c-5.18066 4.02051 -6.90039 4.02051 -167.521 4.41016
c-177.3 0.580078 -169.25 0.959961 -179.22 -10.7305c-6.90039 -8.23926 -7.48047 -12.8398 -6.70996 -55.1992c0.569336 -40.2607 0.959961 -41.79 13.7998 -51.1807c5.17969 -4.0293 6.51953 -4.0293 169.83 -4.0293c163.3 0 164.649 0 169.82 4.0293
c13.04 9.77051 13.2295 10.1504 13.2295 56.3506c0 46.1895 -0.189453 46.5693 -13.2295 56.3496zM670.19 172.08c-5.18066 4.01953 -6.90039 4.01953 -167.521 4.41992c-177.3 0.580078 -169.25 0.959961 -179.22 -10.7305
c-6.90039 -8.25 -7.48047 -12.8496 -6.70996 -55.21c0.569336 -40.2598 0.959961 -41.79 13.7998 -51.1797c5.17969 -4.03027 6.51953 -4.03027 169.83 -4.03027c163.3 0 164.649 0 169.82 4.03027c13.04 9.77051 13.2295 10.1602 13.2295 56.3506
c0 46.1895 -0.189453 46.5693 -13.2295 56.3496z" />
    <glyph glyph-name="uniE025" unicode="&#xe025;" 
d="M113.17 787.17c7.66992 2.87012 46.96 3.07031 390.05 2.67969l381.44 -0.379883l9.58008 -4.79004c12.2695 -5.93945 23.7695 -17.4395 29.71 -29.71l4.79004 -9.58008v-445.649v-445.65l-4.79004 -9.58008c-5.94043 -12.2695 -17.4404 -23.7695 -29.71 -29.71
l-9.58008 -4.79004h-384.311h-384.31l-9.58008 4.79004c-12.2695 5.94043 -23.7695 17.4404 -29.71 29.71l-4.79004 9.58008l-0.570312 441.811c-0.379883 400.989 -0.189453 442.77 2.68066 451.21c6.12988 19.1699 20.1201 33.3496 39.0996 40.0596zM731.52 601.43
c-5.16992 4.03027 -6.31934 4.03027 -228.859 4.40039c-183.05 0.379883 -224.84 0 -229.44 -2.11035c-7.85938 -3.4502 -15.9102 -13.2197 -17.25 -20.8896c-0.569336 -3.4502 -0.950195 -50.2197 -0.569336 -104.271c0.569336 -95.6396 0.769531 -98.1299 4.59961 -103.31
c2.11035 -2.87012 6.32031 -7.08984 9.2002 -9.2002c5.16992 -4.03027 5.93945 -4.03027 231.16 -4.03027c225.22 0 225.989 0 231.159 4.03027c2.87012 2.11035 7.09082 6.32031 9.2002 9.2002c4.03027 5.17969 4.03027 7.28027 4.03027 108.49s0 103.31 -4.03027 108.49
c-2.10938 2.86914 -6.31934 7.08984 -9.2002 9.19922zM731.52 294.75c-5.16992 4.03027 -6.31934 4.03027 -228.859 4.41992c-244.19 0.580078 -230.58 1.15039 -240.55 -10.7295c-6.90039 -8.25 -7.48047 -12.8506 -6.70996 -55.21
c0.569336 -40.2607 0.959961 -41.79 13.7998 -51.1807c5.16992 -4.03027 5.93945 -4.03027 231.16 -4.03027c225.22 0 225.989 0 231.159 4.03027c13.04 9.77051 13.2305 10.1602 13.2305 56.3506c0 46.1895 -0.19043 46.5693 -13.2305 56.3496zM731.52 110.74
c-5.16992 4.0293 -6.31934 4.0293 -228.859 4.41016c-244.19 0.580078 -230.58 1.14941 -240.55 -10.7305c-6.90039 -8.24023 -7.48047 -12.8398 -6.70996 -55.2002c0.569336 -40.25 0.959961 -41.79 13.7998 -51.1797c5.16992 -4.02051 5.93945 -4.02051 231.16 -4.02051
c225.22 0 225.989 0 231.159 4.02051c13.04 9.76953 13.2305 10.1602 13.2305 56.3496c0 46.1904 -0.19043 46.5703 -13.2305 56.3506z" />
    <glyph glyph-name="uniE026" unicode="&#xe026;" 
d="M394.33 665.12c12.0898 2.11035 61.9502 2.5 284.02 2.2998l269.45 -0.379883l11.5098 -5.37012c13.4199 -6.33008 20.9004 -12.8496 26.46 -23.4004l4.2207 -7.66992v-330.8v-330.819l-4.2207 -7.6709c-5.55957 -10.5498 -13.0391 -17.0693 -26.46 -23.3994
l-11.5098 -5.37012h-274.24h-274.239l-16.3008 4.41016c-9.01953 2.49023 -25.3193 8.81934 -36.4395 14.1895l-20.1396 9.59082l-112.19 111.609c-61.75 61.1699 -130.02 129.061 -151.89 150.54c-48.3203 47.75 -52.3506 53.7002 -52.3506 78.8203
c0 27.6201 -3.83008 23.21 132.32 156.49c65.4004 64.0596 133.67 130.8 151.51 148.439c34.71 34.1396 44.4902 41.04 71.7197 50.6299c7.87012 2.87012 20.7207 6.33008 28.7705 7.86035zM515.92 481.78c-5.93945 3.06934 -15.9199 2.68945 -22.6299 -0.959961
c-8.0498 -4.03027 -48.3301 -44.4902 -51.7803 -51.7803c-3.44922 -7.29004 -3.64941 -16.6904 -0.769531 -22.4404c1.14941 -2.2998 25.1201 -27.2295 53.1201 -55.4199l51.21 -51.3994l-51.21 -51.21c-28 -28.3906 -51.9707 -53.3203 -53.1201 -55.6201
c-2.67969 -5.16992 -2.67969 -14.1904 0 -20.9004c2.49023 -7.08984 44.6797 -49.6699 52.7402 -53.5c7.28906 -3.4502 16.5 -3.64941 22.4395 -0.769531c2.31055 1.14941 27.2402 25.1201 55.6201 53.1201l51.21 51.21l51.4004 -51.21
c28.1895 -28 53.1201 -51.9707 55.4199 -53.1201c5.9502 -2.87012 15.1494 -2.68066 22.4395 0.769531c8.05078 3.83008 50.25 46.4102 52.7402 53.5c2.67969 6.70996 2.67969 15.7197 0 20.9004c-1.15039 2.30957 -25.1201 27.2402 -53.1201 55.6201l-51.21 51.21
l51.21 51.3994c28 28.1904 51.9697 53.1201 53.1201 55.4199c2.67969 5.16992 2.67969 14.1904 0 20.9004c-2.49023 7.09961 -44.6895 49.6699 -52.7402 53.5098c-7.29004 3.4502 -16.5 3.65039 -22.4395 0.770508c-2.2998 -1.15039 -27.2305 -25.1201 -55.4199 -53.1201
l-51.4004 -51.21l-51.21 51.21c-28.3896 28 -53.3203 51.9697 -55.6201 53.1201z" />
    <glyph glyph-name="uniE027" unicode="&#xe027;" 
d="M323.98 756.17c65.5 17.6201 128.899 -45.0098 111.85 -110.51c-9.57031 -36.96 -36.2002 -60.71 -77.5703 -69.1406c-3.63965 -0.759766 -6.12988 -4.01953 -10.9199 -13.9795c-3.25977 -7.08008 -16.8496 -34.8604 -30.0703 -61.29l-23.9395 -48.46h206.86h206.689
l-30.6494 61.29c-16.8506 33.9004 -31.79 61.6797 -33.1309 62.0596c-1.14941 0.379883 -6.51953 1.7207 -11.8799 2.87012c-32.1797 7.4707 -58.4199 33.5205 -67.04 66.2705c-12.4492 48.0801 18.0107 98.2598 67.04 111.09
c57.6504 14.9404 115.3 -31.6104 113.771 -91.9404l-0.379883 -13.4102l49.9893 -98.6396l49.9902 -98.6396l50.3701 -0.959961c48.8398 -0.959961 50.7598 -1.15039 59.9502 -5.75c19.54 -9.57031 32.9395 -28.9199 35.0498 -50.1807
c0.759766 -9.75977 -5.94043 -38.1094 -61.8701 -262.399c-34.6699 -138.28 -64.5498 -255.311 -66.8496 -260.101c-5.16992 -11.1094 -16.8506 -22.79 -28.9199 -28.7295l-9.58008 -4.79004h-322.74h-322.72l-9.58008 4.79004
c-12.0605 5.93945 -23.75 17.6201 -28.9199 28.7295c-2.2998 4.78027 -32.1807 121.811 -66.8506 260.101c-55.9297 224.28 -62.6396 252.63 -61.8701 262.399c2.11035 21.2607 15.5107 40.6006 35.0508 50.1807c9.38965 4.58984 10.7295 4.79004 59.9492 5.35938
l50.3701 0.580078l49.9902 99.9805l49.9902 99.9795l-0.379883 12.4502c-0.959961 41.3701 28.1494 79.8701 68.9502 90.79z" />
    <glyph glyph-name="uniE028" unicode="&#xe028;" 
d="M480.71 541.91c7.66992 2.67969 24.7305 3.05957 144.76 2.67969l136.13 -0.379883l9.58984 -4.79004c18.4102 -9.00977 32.2109 -27.7998 34.9004 -46.9697l1.15039 -8.44043l69.2197 -0.580078l69.21 -0.569336l9.58984 -4.79004
c12.2705 -5.9502 23.7803 -17.4502 29.7207 -29.7207c6.70898 -13.8096 6.70898 -37.9697 0 -51.7695c-5.94043 -12.2705 -17.4502 -23.7803 -29.7207 -29.7197l-9.58984 -4.79004l-69.4102 -0.580078l-69.5996 -0.580078v-61.1602v-61.1602l69.5996 -0.580078
l69.4102 -0.580078l9.58984 -4.79004c12.2705 -5.94922 23.7803 -17.4492 29.7207 -29.7197c6.70898 -13.8096 6.70898 -37.96 0 -51.7695c-5.94043 -12.2705 -17.4502 -23.7803 -29.7207 -29.7207l-9.58984 -4.79004l-69.21 -0.580078l-69.2197 -0.579102
l-1.15039 -8.44043c-2.68945 -19.1699 -16.4902 -37.96 -34.8994 -46.9697l-9.59082 -4.79004h-138.989h-139.011l-9.58984 4.79004c-18.4102 9.00977 -32.21 27.7998 -34.8994 46.9697l-1.15039 8.62988l-191.93 0.379883l-191.931 0.580078l-9.58984 4.79004
c-12.2695 5.94043 -23.7793 17.4502 -29.7197 29.7197l-4.79004 9.59082v139.01v139.01l4.79004 9.58984c5.9502 12.2705 17.4502 23.7803 29.7197 29.7197l9.58984 4.79004l192.311 0.59082l192.12 0.379883v4.79004c0 7.2793 5.55957 22.2393 11.8896 31.0596
c6.32031 9.38965 18.0205 18.0205 30.29 22.2402zM438.53 299.75v61.3604h-153.391h-153.39v-61.3604v-61.3496h153.39h153.391v61.3496z" />
    <glyph glyph-name="uniE029" unicode="&#xe029;" 
d="M487.87 786.76c4.4502 5.06055 7.88965 4.25 10.3203 -2.83984c1.61914 -4.45996 2.22949 -60.1396 2.22949 -183.24v-176.75l98.7998 -0.609375c97.5898 -0.600586 98.6104 -0.600586 107.11 -5.06055c4.65039 -2.62988 10.9297 -7.89941 14.1699 -12.1494
c4.86035 -6.48047 5.66992 -9.11035 5.46973 -20.6504c-0.200195 -12.5498 -7.08008 -31.5801 -101.85 -284.67c-56.0801 -149.22 -103.86 -274.96 -106.09 -279.21c-2.43066 -4.4502 -6.08008 -8.90039 -7.90039 -10.1201
c-8.7002 -5.25977 -8.7002 -6.46973 -9.30957 184.05l-0.400391 181.21h-93.1396c-60.3301 0 -96.5801 0.810547 -103.46 2.23047c-19.6406 4.25 -31.79 20.4502 -29.5605 40.0898c0.810547 8.2998 198.83 541.2 207.33 557.8
c1.62012 3.44043 4.45996 7.90039 6.28027 9.91992z" />
    <glyph glyph-name="uniE02A" unicode="&#xe02a;" 
d="M48.6602 613.05c9.38965 3.25 30.2803 3.4502 393.43 3.66016c327.32 0 384.811 -0.379883 392.48 -2.67969c18.9697 -5.75 32.3896 -19.5498 38.3301 -39.4805c2.5 -8.42969 3.06934 -20.7002 3.06934 -70.1396v-59.79l35.0703 -0.770508
c32.96 -0.580078 35.4502 -0.769531 45.6104 -5.55957c13.04 -6.12988 22.6201 -15.5205 28.75 -27.79l4.59961 -9.38965v-101.57v-101.57l-4.41016 -8.80957c-5.93945 -12.2705 -16.4795 -22.4307 -28.9395 -28.3701
c-10.1602 -4.60059 -12.8398 -4.98047 -45.6104 -5.56055l-34.8799 -0.769531l-0.580078 -64.3896l-0.570312 -64.5801l-5.16992 -9.9707c-6.69922 -12.6396 -15.8994 -21.8398 -27.5898 -27.5898l-9.38965 -4.59961h-389.99h-389.99l-8.82031 4.01953
c-12.6494 5.94043 -21.8496 14.9502 -27.9795 27.21l-5.37012 10.9209l-0.570312 268.3c-0.389648 190.109 0 271.17 1.53027 278.069c4.21973 19.3506 17.8301 34.6807 36.9902 41.2002zM586.6 415.46v28.71h-59.8096
c-64.2002 -0.200195 -67.2705 -0.580078 -81.8301 -10.1602c-12.2598 -8.24023 -30.8496 -34.8799 -30.8496 -44.46c0 -2.49023 -13.4199 -2.87988 -115.37 -3.25977l-115.561 -0.570312v-86.2393v-86.2402l115.561 -0.570312l115.37 -0.379883v-9.2002
c0 -16.0898 13.2295 -32.3799 34.5 -42.3496l10.54 -4.98047l63.8193 -0.580078l63.6299 -0.569336v28.75v28.9395h57.4902h57.4902v28.75v28.75l-56.9199 0.379883l-57.1104 0.580078v28.75v28.75l57.1104 0.570312l56.9199 0.379883v28.75v28.75h-57.4902h-57.4902v28.75z
" />
    <glyph glyph-name="uniE02B" unicode="&#xe02b;" 
d="M51.2402 603.32c7.66992 2.87988 46.9902 3.06934 390.279 2.67969l381.641 -0.379883l9.58984 -4.79004c12.2803 -5.9502 23.7803 -17.46 29.7305 -29.7305l4.78906 -9.58984l0.570312 -69.4199l0.580078 -69.4199l38.7402 -0.580078
c36.6299 -0.580078 39.3096 -0.769531 48.3301 -5.37012c12.2793 -5.9502 23.7793 -17.46 29.7295 -29.7295l4.79004 -9.58984v-77.6699v-77.6709l-4.79004 -9.58984c-5.9502 -12.2793 -17.4502 -23.7793 -29.7295 -29.7295
c-9.02051 -4.60059 -11.7002 -4.79004 -48.3301 -5.37012l-38.7402 -0.580078l-0.580078 -69.4199l-0.570312 -69.4199l-4.78906 -9.58984c-5.9502 -12.2803 -17.4502 -23.7803 -29.7305 -29.7305l-9.58984 -4.79004h-384.521h-384.52l-9.58984 4.79004
c-12.2803 5.9502 -23.7803 17.46 -29.7305 29.7305l-4.79004 9.58984v260.819c0 284.41 -0.769531 265.04 10.9307 282.301c6.3291 9.39941 18.0293 18.0293 30.2998 22.25z" />
    <glyph glyph-name="uniE02C" unicode="&#xe02c;" 
d="M51.2402 634c7.66992 2.87988 46.9902 3.07031 390.27 2.67969l381.641 -0.379883l9.58984 -4.79004c12.2793 -5.9502 23.7793 -17.46 29.7295 -29.7295l4.79004 -9.58984l0.570312 -69.4209l0.580078 -69.4199l38.7402 -0.580078
c36.6299 -0.579102 39.3096 -0.769531 48.3301 -5.36914c12.2695 -5.94043 23.7793 -17.4502 29.7393 -29.7207l4.79004 -9.58984v-108.35v-108.36l-4.79004 -9.58984c-5.9502 -12.2803 -17.4502 -23.7803 -29.7295 -29.7305
c-9.02051 -4.59961 -11.7002 -4.7998 -48.3301 -5.36914l-38.7402 -0.580078l-0.580078 -69.4199l-0.570312 -69.4209l-4.78906 -9.58984c-5.9502 -12.2793 -17.4502 -23.7793 -29.7305 -29.7295l-9.58984 -4.79004h-384.521h-384.52l-9.58984 4.79004
c-12.2803 5.9502 -23.7803 17.46 -29.7305 29.7295l-4.79004 9.58984v291.5c0 317.771 -0.769531 295.721 10.9307 312.98c6.3291 9.40039 18.0293 18.0303 30.2998 22.25zM745.48 299.73l0.00976562 214.8h-306.851h-306.85v-214.8v-214.79h306.85h306.841v214.79z
M193.16 299.73v153.43h184.109h184.11v-153.43v-153.421h-184.11h-184.109v153.421z" />
    <glyph glyph-name="uniE02D" unicode="&#xe02d;" 
d="M51.2402 603.32c7.66992 2.87988 46.9902 3.06934 390.279 2.67969l381.641 -0.379883l9.58984 -4.79004c12.2803 -5.9502 23.7803 -17.46 29.7305 -29.7305l4.78906 -9.58984l0.570312 -69.4199l0.580078 -69.4199l38.7402 -0.580078
c36.6299 -0.580078 39.3096 -0.769531 48.3301 -5.37012c12.2793 -5.9502 23.7793 -17.46 29.7295 -29.7295l4.79004 -9.58984v-77.6699v-77.6709l-4.79004 -9.58984c-5.9502 -12.2793 -17.4502 -23.7793 -29.7295 -29.7295
c-9.02051 -4.60059 -11.7002 -4.79004 -48.3301 -5.37012l-38.7402 -0.580078l-0.580078 -69.4199l-0.570312 -69.4199l-4.78906 -9.58984c-5.9502 -12.2803 -17.4502 -23.7803 -29.7305 -29.7305l-9.58984 -4.79004h-384.521h-384.52l-9.58984 4.79004
c-12.2803 5.9502 -23.7803 17.46 -29.7305 29.7305l-4.79004 9.58984v260.819c0 284.41 -0.769531 265.04 10.9307 282.301c6.3291 9.39941 18.0293 18.0293 30.2998 22.25zM315.9 299.73v122.75h-61.3701h-61.3701v-122.74v-122.74h61.3701h61.3701v122.73z" />
    <glyph glyph-name="uniE02E" unicode="&#xe02e;" 
d="M51.2402 634c7.66992 2.87988 46.9902 3.07031 390.27 2.67969l381.641 -0.379883l9.58984 -4.79004c12.2793 -5.9502 23.7793 -17.46 29.7295 -29.7295l4.79004 -9.58984l0.570312 -69.4209l0.580078 -69.4199l38.7402 -0.580078
c36.6299 -0.579102 39.3096 -0.769531 48.3301 -5.36914c12.2695 -5.94043 23.7793 -17.4502 29.7393 -29.7207l4.79004 -9.58984v-108.35v-108.36l-4.79004 -9.58984c-5.9502 -12.2803 -17.4502 -23.7803 -29.7295 -29.7305
c-9.02051 -4.59961 -11.7002 -4.7998 -48.3301 -5.36914l-38.7402 -0.580078l-0.580078 -69.4199l-0.570312 -69.4209l-4.78906 -9.58984c-5.9502 -12.2793 -17.4502 -23.7793 -29.7305 -29.7295l-9.58984 -4.79004h-384.521h-384.52l-9.58984 4.79004
c-12.2803 5.9502 -23.7803 17.46 -29.7305 29.7295l-4.79004 9.58984v291.5c0 317.771 -0.769531 295.721 10.9307 312.98c6.3291 9.40039 18.0293 18.0303 30.2998 22.25zM745.48 299.73l0.00976562 214.8h-306.851h-306.85v-214.8v-214.79h306.85h306.841v214.79z
M193.16 299.73v153.43h61.3701h61.3701v-153.43v-153.421h-61.3701h-61.3701v153.421z" />
    <glyph glyph-name="uniE02F" unicode="&#xe02f;" 
d="M268.69 779.47c16.3496 5.84082 31.5293 10.5107 33.4795 10.5c2.13965 0.200195 7.58984 -1.5498 12.0703 -3.88965c7.00977 -3.31055 9.33984 -6.03027 14.21 -16.3496c5.83984 -12.2607 14.0098 -20.4307 23.5498 -23.5508
c2.71973 -0.779297 17.5195 -1.35938 33.0898 -0.969727c108.82 1.75 208.88 -46.1396 273.9 -131.21c11.6797 -15.1797 30.7598 -48.0801 37.5693 -64.6299c3.51074 -8.37012 17.5205 -46.7197 31.1504 -85.2598s26.0898 -72.8105 27.8398 -76.3105
c5.83984 -11.29 22.1904 -29 35.6104 -38.9297c7.39941 -5.4502 24.3398 -15.1904 37.7695 -21.6104c35.4307 -16.9297 60.3398 -36.3994 76.8906 -59.7598c53.1494 -74.9404 34.8496 -168.58 -50.6104 -257.54c-65.0195 -67.7402 -161.19 -124.2 -276.04 -161.77
c-143.86 -47.1104 -284.41 -50.8105 -379.21 -10.1201c-48.6699 21.0293 -85.6504 56.46 -101.42 97.1396c-17.9102 45.9404 -14.0205 92.8496 12.0703 144.44c15.7695 31.3398 23.1699 62.29 20.25 85.2598c-0.580078 6.22949 -12.8506 44.3799 -27.25 85.2598
c-14.2207 40.8799 -27.2607 79.8203 -29.0107 86.6299c-18.8799 72.8105 -11.6797 150.87 20.4502 219.2c24.7197 52.75 64.2402 98.6904 115.63 134.51c12.2705 8.56055 17.7207 20.2402 15.7705 34.2598c-3.31055 24.9209 -3.31055 26.0908 -0.200195 32.1201
c4.48047 8.56055 8.95996 10.9004 42.4404 22.5801zM713.5 247.06c-20.4404 2.7207 -79.2305 2.14062 -104.53 -0.979492c-77.6699 -9.33984 -158.649 -34.2598 -231.649 -71.0498c-51.2002 -25.8906 -87.6006 -50.8105 -120.5 -82.7305
c-61.9102 -59.7598 -75.9199 -111.93 -37.7705 -139.77c97.3301 -70.8604 356.431 -23.9404 510.61 92.2695c81.7598 61.71 115.82 128.681 83.1201 162.94c-18.8799 19.6602 -53.1406 33.2793 -99.2803 39.3193zM572.95 177.56
c18.8799 4.29004 23.9395 -5.83984 21.7998 -43.2197c-3.11035 -55.6699 -38.9297 -107.649 -90.1299 -130.81c-54.3105 -24.7207 -117.97 -16.54 -164.3 21.2197c-26.6699 21.6104 -30.7607 30.7598 -18.3008 42.4404c11.8809 11.29 51.3906 36.3994 79.6201 50.8096
c54.9004 27.8301 100.261 43.5996 171.311 59.5596z" />
    <glyph glyph-name="uniE030" unicode="&#xe030;" 
d="M750.52 705.91c54.1104 10.1699 106.5 -19.1904 125.12 -70.2197c6.34082 -17.2705 7.87012 -42.6006 3.65039 -60.6406c-9.20996 -38.5693 -39.3398 -70.04 -77.9102 -80.9795c-7.49023 -2.11035 -22.6504 -3.4502 -52.2002 -4.03027
c-23.0293 -0.580078 -41.8301 -1.33984 -41.8301 -1.91992c0 -1.15039 95.9502 -160.42 97.8701 -162.53c0.959961 -0.959961 10.5498 -4.03027 21.4902 -6.91016c34.54 -9.01953 57.9502 -20.9102 85.9697 -43.5596c34.9199 -28.5898 59.6807 -67.7402 72.3398 -115.14
c4.4209 -16.8906 4.99023 -22.2607 4.99023 -51.4307s-0.569336 -34.54 -4.99023 -51.4297c-15.5498 -58.1396 -48.7393 -103.24 -98.0596 -133.94c-19 -11.5195 -38.5703 -19.7695 -62.3701 -26.0996c-16.1201 -4.41016 -22.4502 -4.99023 -50.0801 -4.99023
c-41.4502 -0.200195 -64.8594 4.98047 -98.4395 21.6797c-41.8301 20.9209 -77.1406 56.0303 -98.0605 97.4805c-15.5498 30.9004 -22.8398 62.5596 -22.8398 98.25c0.19043 78.8701 42.2197 150.07 111.11 189.02c8.43945 4.61035 16.3096 9.21094 17.6494 9.98047
c2.11035 1.15039 -10.1699 23.0303 -49.5098 88.8496c-28.79 47.9805 -53.3496 88.4707 -54.5 89.8105c-1.72949 1.72949 -16.8896 2.2998 -67.7402 1.91992l-65.4297 -0.580078l51.4199 -68.3203c33.3896 -44.3301 52.2002 -71 53.54 -75.7998
c3.27051 -11.5098 2.5 -29.5498 -1.53027 -38.3799c-1.91992 -4.21973 -27.0596 -42.9902 -55.6494 -85.9697l-52.2002 -78.1006l1.72949 -16.6895c9.20996 -84.0498 -40.8799 -171.94 -120.319 -211.471c-33.2002 -16.6895 -56.7998 -21.8691 -98.0605 -21.6797
c-27.6299 0 -33.96 0.580078 -50.0801 4.99023c-81.1699 21.4902 -138.93 79.0596 -160.42 160.03c-4.21973 16.3096 -4.98926 22.8398 -5.17969 49.5098c0 18.6201 0.769531 35.3096 2.2998 42.2197c12.6699 58.5303 46.25 109.19 92.6904 140.09
c16.5 11.1299 44.8994 24.3701 61.9795 28.9805c9.2207 2.49023 13.6299 4.79004 14.7803 7.47949c0.950195 2.11035 11.5098 54.3008 23.79 116.101c12.2803 61.79 23.5996 116.479 25.3301 121.85c2.11035 6.52051 6.13965 12.6699 12.8604 19.1904
c17.46 17.46 1.53906 16.3096 223.939 16.3096h195.16l2.11035 14.2002c4.01953 27.0498 16.3096 50.6602 35.2998 67.3496c11.71 10.3604 36.6602 23.0303 50.2793 25.5205zM378.82 397.35c-29.9404 40.1006 -54.6904 72.7305 -55.2607 72.9199
c-0.959961 0 -30.8896 -148.72 -30.6992 -152.939c0 -1.33984 0.769531 -2.49023 1.72949 -2.49023s9.20996 -3.07031 18.4199 -6.91016c20.3398 -8.63965 45.6699 -24.9492 61.9805 -40.1094c6.89941 -6.33008 12.8496 -10.3604 13.6201 -9.40039
c0.959961 0.959961 11.3193 16.3105 23.0293 33.96l21.4902 32.2402zM254.47 214.09c-13.2393 3.64062 -42.0195 3.4502 -55.4502 -0.189453c-37.2295 -9.98047 -69.0791 -42.6104 -77.9092 -79.6406c-8.83008 -37.6094 1.72949 -73.6797 29.5498 -101.7
c23.79 -23.7998 50.0801 -33.9697 83.0898 -32.0498c45.4697 2.68066 83.4697 32.4307 97.6699 76.3701c5.56055 17.2803 5.56055 46.0605 0 63.3301c-11.5098 36.0801 -40.8701 64.2803 -76.9502 73.8799zM800.22 214.09
c-6.33008 1.53027 -18.6201 2.87988 -28.5898 2.67969c-30.8994 -0.189453 -52.5801 -9.39941 -75.0303 -31.4697c-21.8799 -21.5 -32.2393 -46.25 -32.2393 -76.7598c0.189453 -58.5205 43.9395 -104.58 102.47 -107.84c33.2002 -1.91016 58.7197 8.05957 82.71 31.8594
c21.4902 21.6807 32.4297 46.8203 32.4297 75.4102c0 49.7002 -33.7793 93.6504 -81.75 106.12z" />
    <glyph glyph-name="uniE031" unicode="&#xe031;" 
d="M235.06 726.09c12.6504 4.03027 85.8701 4.2207 98.8906 0.209961c20.5098 -6.33008 37 -24.3496 41.4102 -45.2402c2.2998 -10.9297 2.2998 -11.1201 9.96973 -12.2695c19.9395 -3.25977 38.5303 -16.8701 47.3496 -34.7002
c4.61035 -9.38965 4.61035 -9.76953 5.18066 -79.7402l0.579102 -70.54h61.1504h61.1504l0.569336 70.54c0.580078 69.96 0.580078 70.3506 5.18066 79.7402c8.81934 17.8301 27.4199 31.4404 47.3496 34.7002c7.66992 1.14941 7.66992 1.33984 9.96973 12.46
c4.41016 20.71 21.0801 39.1104 41.0205 45.0498c13.9902 4.03027 84.9199 4.03027 98.9102 0c19.9297 -5.93945 36.6094 -24.3496 41.0195 -45.0498l2.2998 -11.1201l10.9307 -2.11035c23.1895 -4.59961 46.96 -22.0391 56.9297 -41.7891
c4.59961 -8.82031 110.22 -480.95 113.29 -506.641c7.28027 -57.7002 -7.86035 -114.82 -42.75 -161.21c-53.8604 -71.3096 -135.72 -100.83 -227.729 -82.2402c-77.8203 15.9102 -131.5 63.4502 -148.94 131.69c-6.52051 25.6797 -7.86035 47.1504 -7.86035 141.08v89.5195
h-61.3398h-61.3398v-88.5596c-0.19043 -94.5 -1.33984 -117.5 -7.86035 -142.23c-21.4697 -81.2793 -91.4395 -131.319 -190.93 -136.489c-61.9199 -3.4502 -114.25 17.0596 -159.68 62.4893c-27.4102 27.2207 -47.9199 60.1904 -59.2305 95.46
c-8.42969 26.0703 -10.7295 41.21 -10.54 69.3906l0.19043 25.8799l54.8193 245.74c30.1006 135.149 56.5508 249.59 58.6602 254.38c8.82031 20.1201 33.5508 38.7197 57.5107 43.5098l10.9297 2.11035l2.2998 10.9297c4.21973 20.5098 20.7002 38.7197 40.6396 45.0498z
M245.98 174.41c-5.36035 1.33984 -15.9102 2.47949 -23.3906 2.49023c-24.5303 -0.19043 -42.9395 -7.66992 -61.3398 -24.9199c-38.7197 -36.2305 -39.6797 -93.9307 -2.11035 -131.12c36.4199 -36.4199 92.4004 -36.4199 128.82 0
c37.5703 37.1895 36.6104 94.8896 -2.11035 131.12c-12.8398 11.8896 -23.7695 18.21 -39.8691 22.4297zM798.05 174.41c-5.35938 1.33984 -15.9102 2.47949 -23.3896 2.49023c-24.54 -0.19043 -42.9404 -7.66992 -61.3398 -24.9199
c-39.3008 -36.8105 -39.3008 -97.1904 -0.19043 -133.421c37 -34.3096 91.25 -33.3594 126.9 2.30078c37.5693 37.1895 36.6094 94.8896 -2.11035 131.12c-12.8398 11.8896 -23.7695 18.21 -39.8701 22.4297z" />
    <glyph glyph-name="uniE032" unicode="&#xe032;" 
d="M422.34 788.5c6.12988 2.48047 12.8398 1.91016 21.2598 -1.92969c4.21094 -1.91016 71.8203 -42.5205 150.351 -90.21c78.3301 -47.6904 162.99 -99.21 187.89 -114.341c25.0898 -15.1299 47.3105 -29.8799 49.4199 -32.5596
c4.60059 -5.94043 4.98047 -15.3203 0.959961 -21.2598c-1.71973 -2.2998 -45.0098 -37.9199 -96.3398 -79.1006c-117.79 -94.8096 -182.34 -147.67 -182.34 -149.199c0 -1.53027 64.9297 -54.5908 181.18 -147.83c50.5703 -40.8008 94.4307 -76.8008 97.1104 -80.0605
c9 -10.5293 6.12988 -20.8701 -7.84961 -30.0693c-22.6006 -14.3701 -373.48 -225.631 -380.381 -228.69c-17.8096 -8.0498 -31.0293 -0.769531 -35.4297 18.96c-1.54004 7.08008 -2.11035 60.5205 -2.11035 179.46c0 93.2705 -0.389648 169.5 -0.769531 169.5
c-0.580078 0 -34.0996 -24.1396 -74.7002 -53.4395c-40.5996 -29.5 -77.9502 -55.1602 -82.9297 -57.0801c-13.79 -5.16992 -40.9805 -4.79004 -51.71 0.959961c-34.1006 18 -43.6699 61.6699 -19.54 89.25c4.03027 4.39941 46.1602 37.3398 93.4697 72.9697
c47.5 35.4297 86.3799 65.3096 86.3799 66.2695c0 0.760742 -39.6494 31.4102 -88.2998 67.8008c-94.6201 71.0596 -96.5303 72.9795 -101.32 93.2793c-6.31934 26.2402 7.28027 54.96 31.9902 66.8398c11.6797 5.74023 31.2197 6.89062 44.8203 2.87012
c8.0498 -2.48926 26.8193 -14.9395 86 -57.8398l75.6494 -54.7803l0.959961 175.061c0.770508 139.05 1.53027 176.01 3.4502 180.61c3.25 7.08984 7.85059 12.4492 12.8301 14.5596zM596.64 565.74c-35.4395 21.2598 -65.3193 38.6895 -66.2695 38.6895
s-1.71973 -36.9697 -1.71973 -90.9795c0 -49.9902 0.569336 -90.9805 1.14941 -90.9805c0.759766 0 122.771 97.2998 129.66 103.431c0.770508 0.769531 -27.5801 18.5801 -62.8203 39.8398zM593.38 127.33c-34.4795 27.3896 -63.1895 50 -63.7695 50
s-0.959961 -40.9902 -0.959961 -90.9805c0 -54.0195 0.759766 -90.9795 1.71973 -90.9795s30.8398 17.4297 66.2695 38.6895c50.9404 30.6406 63.7803 39.0703 61.8604 40.79c-1.33984 1.34082 -30.6396 24.9004 -65.1201 52.4805z" />
    <glyph glyph-name="uniE033" unicode="&#xe033;" 
d="M222.53 787.66c11.6895 2.09961 42.1494 2.49023 154.399 2.2793l139.83 -0.379883l9.58008 -4.79004c12.2598 -5.93945 23.75 -17.4297 29.6904 -29.6895l4.79004 -9.58008l0.959961 -188.87c0.959961 -206.11 0.379883 -195.189 12.0693 -195.189
c5.16992 0 10.9199 4.97949 42.9102 36.7793l36.9707 36.7803l36.9492 -36.7705c31.9902 -31.7998 37.7402 -36.7793 42.9102 -36.7793c11.6904 0 11.1104 -12.0703 12.0703 208.03c0.959961 199.979 0.959961 201.709 4.97949 206.88
c2.11035 2.87012 6.33008 7.0791 9.2002 9.18945c4.98047 3.83008 7.66016 4.02051 64.9404 4.02051c59.7598 0 59.7598 0 69.3398 -4.79004c12.2598 -5.94043 23.75 -17.4307 29.6904 -29.6904l4.78906 -9.58008v-322.77v-322.771l-4.78906 -9.58008
c-5.94043 -12.2598 -17.4307 -23.75 -29.6904 -29.6895l-9.58008 -4.79004l-322.771 -0.959961l-322.77 -0.959961l-9.58008 -4.79004c-12.2598 -5.94043 -23.75 -17.4297 -29.6895 -29.6904c-3.83008 -7.84961 -4.79004 -12.4502 -4.79004 -25.8594
c0 -13.9805 0.759766 -17.6201 5.16992 -26.0508c7.65918 -14.5596 13.4092 -20.5 26.8193 -27.7793l12.0703 -6.51074l335.6 -0.959961c335.23 -0.959961 335.61 -0.959961 340.78 -4.97949c12.4502 -9.19043 13.2197 -11.6797 13.2197 -43.4805
c0 -27.1992 -0.389648 -29.6895 -4.79004 -38.6895c-5.93945 -12.2598 -17.4297 -23.75 -29.6895 -29.6904l-9.58008 -4.79004l-321.81 -0.569336c-353.801 -0.380859 -337.711 -0.959961 -371.23 11.1094c-48.0801 17.4307 -91.1797 60.5303 -108.61 108.61
c-12.0693 33.3301 -11.4893 17.4395 -11.4893 370.28c0 352.84 -0.580078 336.939 11.4795 370.279c8.81055 23.9404 22.7998 45.5898 42.9102 65.7002c27.5898 27.5898 59.96 44.6299 96.7402 51.5303z" />
    <glyph glyph-name="uniE034" unicode="&#xe034;" 
d="M222.53 787.47c12.0693 2.2998 69.9199 2.68066 338.28 2.49023l323.729 -0.379883l9.58008 -4.79004c12.2598 -5.94043 23.75 -17.4297 29.6904 -29.6904l4.78906 -9.58008v-322.77v-322.77l-4.78906 -9.58008c-2.49023 -5.16992 -8.24023 -13.0303 -12.4502 -17.2402
s-11.8799 -9.95996 -17.2402 -12.4502l-9.58008 -4.79004l-322.771 -0.959961l-322.77 -0.959961l-9.58008 -4.79004c-12.2598 -5.93945 -23.75 -17.4297 -29.6895 -29.6895c-3.83008 -7.85059 -4.79004 -12.4502 -4.79004 -25.8604
c0 -13.9805 0.759766 -17.6201 5.16992 -26.0498c7.66992 -14.5605 13.4092 -20.5 26.8193 -27.7803l12.0703 -6.50977l335.6 -0.959961c335.23 -0.959961 335.61 -0.959961 340.78 -4.98047c12.4502 -9.18945 13.2197 -11.6797 13.2197 -43.4795
c0 -27.21 -0.389648 -29.7002 -4.79004 -38.7002c-5.93945 -12.2598 -17.4297 -23.75 -29.6895 -29.6904l-9.58008 -4.79004l-321.81 -0.569336c-353.801 -0.380859 -337.711 -0.959961 -371.23 11.1094c-48.0801 17.4307 -91.1797 60.5303 -108.61 108.61
c-12.0596 33.3301 -11.4893 17.4395 -11.4893 370.28c0 352.85 -0.580078 336.949 11.4795 370.27c8.81055 23.9502 22.7998 45.5996 42.9102 65.71c27.5898 27.5898 59.96 44.8301 96.7402 51.3398zM731.5 601.66c-5.16992 4.01953 -6.70996 4.01953 -198.08 4.40039
c-210.52 0.569336 -199.79 0.958984 -209.75 -10.7305c-6.88965 -8.24023 -7.46973 -12.8398 -6.7002 -55.1699c0.570312 -40.2197 0.959961 -41.7598 13.79 -51.1406c5.18066 -4.01953 6.33008 -4.01953 200.37 -4.01953c194.05 0 195.2 0 200.37 4.01953
c13.0303 9.77051 13.2197 10.1602 13.2197 56.3203c0 46.1699 -0.189453 46.5498 -13.2197 56.3203zM731.5 417.77c-5.16992 4.02051 -6.70996 4.02051 -198.08 4.40039c-210.52 0.570312 -199.79 0.950195 -209.75 -10.7295
c-6.88965 -8.24023 -7.46973 -12.8408 -6.7002 -55.1709c0.570312 -40.2197 0.959961 -41.75 13.79 -51.1396c5.18066 -4.01953 6.33008 -4.01953 200.37 -4.01953c194.05 0 195.2 0 200.37 4.01953c13.0303 9.77051 13.2197 10.1602 13.2197 56.3203
c0 46.1699 -0.189453 46.5498 -13.2197 56.3193z" />
    <glyph glyph-name="uniE035" unicode="&#xe035;" 
d="M225.34 788.62c6.14062 0.959961 146.87 1.54004 334.78 1.33984l324.03 -0.19043l11.3096 -5.75c13.8096 -7.08984 26.46 -21.8496 30.6797 -35.8496c2.5 -8.82031 2.87988 -58.6699 2.87988 -448.28c0 -389.609 -0.389648 -439.46 -2.87988 -448.279
c-4.21973 -14 -16.8799 -28.7705 -30.6797 -35.8604l-11.3096 -5.75h-328.83h-329.021l-18.5996 5.17969c-67.1006 18.79 -115.8 68.8301 -133.25 136.9c-3.25977 12.46 -3.4502 34.5098 -3.4502 347.81c0 371.58 -0.959961 341.48 12.6504 375.61
c23.3896 58.4697 78.4199 102.57 141.689 113.12zM730.76 601.68c-5.17969 4.03027 -6.70996 4.03027 -198.25 4.41016c-210.72 0.570312 -199.979 0.959961 -209.95 -10.7402c-6.89941 -8.23926 -7.47949 -12.8496 -6.70996 -55.2197
c0.570312 -40.2598 0.950195 -41.79 13.8008 -51.1895c5.17969 -4.03027 6.33984 -4.03027 200.56 -4.03027s195.37 0 200.55 4.03027c13.04 9.7793 13.2305 10.1592 13.2305 56.3701c0 46.209 -0.19043 46.5898 -13.2305 56.3691zM730.76 417.61
c-5.17969 4.0293 -6.70996 4.0293 -198.25 4.40918c-210.72 0.570312 -199.979 0.960938 -209.95 -10.7393c-6.89941 -8.24023 -7.47949 -12.8506 -6.70996 -55.2207c0.570312 -40.2598 0.950195 -41.7998 13.8008 -51.1895
c5.17969 -4.03027 6.33984 -4.03027 200.56 -4.03027s195.37 0 200.55 4.03027c13.04 9.78027 13.2305 10.1602 13.2305 56.3701s-0.19043 46.5898 -13.2305 56.3701zM806.3 -6.88965v61.3301l-280.319 -0.19043c-292.591 0 -286.261 0.19043 -301.79 -8.0498
c-8.25 -4.21973 -21.4805 -19.3701 -26.2705 -29.7197c-5.37012 -12.4609 -5.37012 -34.3203 0.19043 -46.7803c5.55957 -12.6504 19.5596 -27.0303 31.6396 -32.4004l9.96973 -4.59961l283.391 -0.570312l283.189 -0.379883v61.3604z" />
    <glyph glyph-name="uniE036" unicode="&#xe036;" 
d="M222.74 786.75c11.4795 2.09961 47.8496 2.67969 176.85 2.86035l162.13 0.189453v-176.29c0 -129.01 0.580078 -177.25 2.11035 -180.31c3.07031 -5.74023 5.36035 -7.08008 13.0195 -7.08008c6.13086 0 9.76074 3.07031 41.7305 34.8398l35.0303 34.8398
l35.04 -34.8301c31.9697 -31.7793 35.6094 -34.8398 41.7295 -34.8398c7.66016 0 9.95996 1.33984 13.0205 7.08008c1.51953 3.05957 2.09961 51.2998 2.09961 180.5v176.29l69.4805 -0.570312l69.2891 -0.569336l9.57031 -4.79004
c12.25 -5.94043 23.7402 -17.4199 29.6699 -29.6699l4.79004 -9.57031v-445.04v-445.021l-4.79004 -9.56934c-5.92969 -12.25 -17.4199 -23.7402 -29.6699 -29.6699l-9.57031 -4.79004l-321.579 -0.580078c-353.54 -0.390625 -337.46 -0.959961 -370.96 11.0996
c-48.04 17.4199 -91.1104 60.4902 -108.53 108.53c-12.0498 33.2998 -11.4805 17.4102 -11.4805 370c0 352.58 -0.580078 336.69 11.4805 370c8.80957 23.9297 22.7803 45.5596 42.8799 65.6602c27.5596 27.5596 59.9102 44.79 96.6602 51.2998zM806.74 -6.46973v61.2695
h-280.811c-250.37 -0.200195 -281.949 -0.580078 -289.609 -3.25977c-36.5605 -12.6396 -52.4404 -52.8301 -34.4502 -86.5205c7.08008 -13.21 13.0098 -18.9492 27.5596 -26.6094l9.76074 -5.16992l283.869 -0.580078l283.681 -0.379883v61.25z" />
    <glyph glyph-name="uniE037" unicode="&#xe037;" 
d="M267.71 788.03c4.02051 0.959961 109.92 1.71973 235.16 1.91016c251.26 0.189453 241.68 0.579102 259.49 -11.6807c11.2998 -7.66016 16.6592 -14.5596 22.79 -28.9199l4.97949 -11.8701l0.570312 -450.8c0.189453 -300.09 -0.19043 -453.1 -1.53027 -457.89
c-4.21973 -15.5205 -15.3301 -22.0303 -29.8799 -17.2402c-4.40039 1.53027 -54.7598 40.5996 -131.75 102.07c-68.5596 54.9697 -126.01 99.7793 -127.54 99.7793s-58.9805 -44.8193 -127.54 -99.7793c-76.9902 -61.4707 -127.36 -100.54 -131.76 -102.07
c-14.5498 -4.78027 -25.6602 1.72949 -29.8701 17.2402c-1.33984 4.79004 -1.71973 157.04 -1.53027 455.21l0.570312 447.74l6.32031 13.0195c10.7295 21.6396 30.6396 38.2998 51.5195 43.2803z" />
    <glyph glyph-name="uniE038" unicode="&#xe038;" 
d="M27.9805 787.65c4.78906 2.10938 87.7695 2.48926 474.68 2.10938l468.939 -0.379883l5.16992 -4.01953c2.87012 -2.11035 7.09082 -6.33008 9.2002 -9.2002c4.02051 -5.17969 4.02051 -7.28027 4.02051 -108.47c0 -101.19 0 -103.301 -4.02051 -108.471
c-2.10938 -2.87988 -6.31934 -7.08984 -9.2002 -9.2002l-5.16992 -4.01953h-471.229h-471.24l-5.16992 4.01953c-2.87988 2.11035 -7.08984 6.33008 -9.2002 9.2002c-3.83008 5.16992 -4.0293 7.66016 -4.59961 103.29c-0.390625 54.04 0 100.801 0.570312 104.25
c1.33984 7.66992 9.38965 17.4404 17.25 20.8906zM89.2998 481.03c4.79004 2.10938 77.4199 2.48926 413.351 2.08984l407.619 -0.379883l5.1709 -4.02051c2.87012 -2.10938 7.08984 -6.31934 9.19922 -9.19922l4.02051 -5.1709v-317.93v-317.93l-4.02051 -5.16992
c-2.10938 -2.87012 -6.31934 -7.08984 -9.19922 -9.2002l-5.1709 -4.02051h-409.909h-409.91l-5.16992 4.02051c-2.87988 2.11035 -7.08984 6.32031 -9.2002 9.2002c-4.03027 5.17969 -4.03027 5.55957 -4.59961 317.93c-0.200195 172.1 0 315.44 0.569336 318.89
c1.33984 7.66992 9.39062 17.4404 17.25 20.8906zM670.16 356.08c-5.17969 4.03027 -6.90039 4.03027 -167.49 4.41016c-177.26 0.580078 -169.22 0.959961 -179.18 -10.7305c-6.90039 -8.24023 -7.48047 -12.8398 -6.70996 -55.1895
c0.580078 -40.25 0.959961 -41.7803 13.7998 -51.1699c5.16992 -4.02051 6.50977 -4.02051 169.79 -4.02051c163.27 0 164.62 0 169.79 4.02051c13.0303 9.76953 13.2197 10.1494 13.2197 56.3398c0 46.1797 -0.189453 46.5693 -13.2197 56.3398z" />
    <glyph glyph-name="uniE039" unicode="&#xe039;" 
d="M296.71 787.43c7.66992 2.88086 30.2998 3.07031 206.17 2.68066l197.53 -0.379883l9.58984 -4.79004c12.2803 -5.9502 23.7803 -17.46 29.7305 -29.7305l4.78906 -9.58984l0.580078 -69.4199l0.560547 -69.4199l100.109 -0.580078l100.11 -0.580078l9.58984 -4.79004
c12.2803 -5.9502 23.79 -17.46 29.7305 -29.7305l4.7998 -9.58008v-353.84v-353.83l-4.79004 -9.58984c-5.9502 -12.2793 -17.46 -23.7793 -29.7295 -29.7295l-9.59082 -4.79004h-445.89h-445.89l-9.58984 4.79004c-12.2803 5.9502 -23.7803 17.4502 -29.7305 29.7295
l-4.79004 9.58984v353.83v353.82l4.79004 9.58984c5.9502 12.2803 17.46 23.7803 29.7305 29.7305l9.58984 4.79004l100.3 0.579102l100.109 0.580078v65.9707c0 55.8096 0.380859 67.5098 3.07031 75.1797c6.52051 18.9902 20.1299 32.9902 39.1201 39.5098zM622.74 637.27
v30.6904h-122.74h-122.74v-30.6904v-30.6895h122.74h122.74v30.6895zM254.9 138.25l-0.570312 38.7402h-61.3701h-61.1797v-122.74v-122.74h368.22h368.23v122.74v122.74h-61.1807h-61.3701l-0.580078 -38.7402c-0.580078 -36.8203 -0.769531 -39.5098 -5.36914 -48.5195
c-5.9502 -12.2803 -17.4502 -23.7803 -29.7305 -29.7305c-7.86035 -3.83008 -12.4697 -4.79004 -25.8896 -4.79004s-18.0303 0.950195 -25.8906 4.79004c-12.2793 5.9502 -23.79 17.46 -29.7295 29.7305c-4.60059 9.00977 -4.79004 11.6992 -5.37012 48.5195
l-0.570312 38.7402h-122.55h-122.54l-0.580078 -38.7402c-0.580078 -36.8203 -0.769531 -39.5098 -5.37012 -48.5195c-5.9502 -12.2803 -17.46 -23.7803 -29.7295 -29.7305c-13.8105 -6.70996 -37.9707 -6.70996 -51.7803 0
c-12.2803 5.9502 -23.7803 17.46 -29.7305 29.7305c-4.59961 9.00977 -4.78906 11.6992 -5.36914 48.5195z" />
    <glyph glyph-name="uniE03A" unicode="&#xe03a;" 
d="M56.5195 788.46c3.26074 0.770508 203.141 1.33984 444.03 1.53027c398.42 0.200195 439.05 0 447.86 -2.87012c14.5703 -4.79004 26.8301 -15.1396 34.6895 -29.5098l6.90039 -12.46v-445.561v-445.55l-5.16992 -9.77051
c-7.66992 -14.5693 -13.4102 -20.5098 -26.8301 -27.7891l-12.0703 -6.52051h-445.56h-445.561l-12.46 6.90039c-14.5596 7.85938 -24.9092 20.3096 -29.5098 35.0693c-2.87012 8.81055 -3.05957 50.7803 -2.67969 451.5l0.570312 441.73l5.16992 9.76953
c2.86914 5.36035 7.2793 12.2607 9.95996 15.5205c5.16992 6.12988 21.6494 15.71 30.6592 18.0098zM255.06 606.21v61.3203h-61.3193h-61.3203v-61.3203v-61.3203h61.3203h61.3193v61.3203zM868.31 606.21v61.3203h-245.3h-245.3v-61.3203v-61.3203h245.3h245.3v61.3203z
" />
    <glyph glyph-name="uniE03B" unicode="&#xe03b;" 
d="M944.74 789c63.4697 20.6504 60 -30.8604 -9.25977 -134.27c-55.1807 -82.7705 -135.051 -176.73 -246.37 -290.36c-144.7 -147.79 -222.07 -224.57 -227.66 -225.73c-6.94043 -1.5498 -16.2002 3.08008 -20.6406 10.2207
c-25.0791 40.71 -46.1094 63.4697 -77.75 84.3096c-23.9199 15.6299 -26.8193 18.7197 -27.0098 28.75c0 6.56055 1.54004 8.87012 14.0801 21.7998c39.9404 41.4805 264.12 261.04 297.5 291.32c127.72 115.95 236.34 194.28 297.11 213.96zM214.5 175.49
c17.1797 3.66992 45.54 2.12012 62.71 -3.08008c44.5596 -13.9004 77.3604 -47.46 91.8301 -94.54c6.75 -21.6104 6.37012 -53.0605 -0.770508 -74.2803c-11.7695 -35.6895 -46.6895 -74.8496 -94.9199 -106.88c-57.5 -38.2002 -139.489 -71.3896 -213.189 -86.2402
c-35.5 -7.33008 -50.1602 -4.62988 -50.1602 9.26074c0 7.90918 3.66016 15.4297 17.3604 36.2695c30.6797 46.6904 49.0098 94.54 74.4697 194.86c4.82031 19.6797 10.9902 40.1201 13.3096 45.7197c17.3604 38.9697 56.1406 69.8398 99.3604 78.9102z" />
    <glyph glyph-name="uniE03C" unicode="&#xe03c;" 
d="M442.45 788.46c26.8096 1.53027 97.8398 1.15039 126.359 -0.570312c238.36 -14.5498 396.881 -85.3896 418.33 -186.67c9.57031 -44.9893 -4.79004 -85.7695 -43.2695 -123.1l-15.1299 -14.7402v-225.53c0 -250.409 0.379883 -240.84 -12.6406 -269.369
c-12.8193 -27.7607 -36.1797 -53.2207 -68.7295 -75.0508c-62.0303 -41.5498 -151.25 -68.54 -265.16 -80.4102c-31.4004 -3.25977 -133.25 -3.25977 -164.65 0c-196.619 20.3008 -323.739 88.6406 -343.46 184.561c-2.67969 13.0195 -3.05957 42.1201 -3.05957 240.27
v225.53l-15.1201 14.7402c-33.7002 32.7402 -48.4395 66.8203 -45.5703 105.68c3.4502 48.0498 34.0801 89.4102 91.3203 123.29c76 44.9902 195.28 73.5205 340.78 81.3701zM605.19 662.49c-35.4209 3.62988 -141.681 5.16992 -177.08 2.87012
c-100.32 -7.08008 -189.54 -26.8008 -248.891 -55.5205c-21.6299 -10.3398 -40.9697 -23.9297 -44.9893 -31.7803c-2.68066 -4.97949 -2.48047 -5.35938 7.46973 -14.5498c12.8193 -11.6699 51.3096 -30.8193 83.4697 -41.54
c172.88 -56.8594 445.69 -49.5898 589.28 15.8906c25.8496 11.6797 53.0303 31.5898 53.0303 38.6699c0 3.43945 -15.3203 16.6494 -27.7607 23.9297c-51.1201 29.6797 -137.46 52.46 -234.529 62.0303z" />
    <glyph glyph-name="uniE03D" unicode="&#xe03d;" 
d="M51.9199 787.07c7.66992 2.87988 32.9697 3.06934 236.68 2.66016l228.051 -0.380859l9.58008 -4.79004c5.36914 -2.5 13.0293 -8.23926 17.25 -12.46c4.21973 -4.21973 9.96973 -11.8799 12.46 -17.25l4.79004 -9.58008l0.579102 -69.3691l0.570312 -69.5605
l192.021 -0.379883l192.02 -0.570312l9.58008 -4.79004c12.2598 -5.93945 23.7598 -17.4395 29.7002 -29.6992l4.79004 -9.58008v-353.58v-353.57l-4.79004 -9.58008c-5.94043 -12.2598 -17.4307 -23.7598 -29.7002 -29.7002l-9.58008 -4.79004h-445.56h-445.561
l-9.58984 4.79004c-12.2598 5.94043 -23.7598 17.4307 -29.7002 29.7002l-4.79004 9.58008l-0.569336 441.73c-0.390625 400.91 -0.19043 442.689 2.67969 451.119c6.12988 19.1602 19.9297 33.3408 39.0898 40.0508zM255.06 606.36v61.3193h-61.3193h-61.3203v-61.3193
v-61.3203h61.3203h61.3193v61.3203zM439.04 606.36v61.3193h-61.3203h-61.3193v-61.3193v-61.3203h61.3193h61.3203v61.3203zM255.06 422.38v61.3301h-61.3193h-61.3203v-61.3203v-61.3301h61.3203h61.3193v61.3203zM439.04 422.38v61.3301h-61.3203h-61.3193v-61.3203
v-61.3301h61.3193h61.3203v61.3203zM684.33 422.38v61.3301h-61.3301h-61.3203v-61.3203v-61.3301h61.3203h61.3301v61.3203zM868.31 422.38v61.3301h-61.3193h-61.3203v-61.3203v-61.3301h61.3203h61.3193v61.3203zM255.06 238.41v61.3301h-61.3193h-61.3203v-61.3301
v-61.3301h61.3203h61.3193v61.3301zM439.04 238.41v61.3301h-61.3203h-61.3193v-61.3301v-61.3301h61.3193h61.3203v61.3301zM684.33 238.41v61.3301h-61.3301h-61.3203v-61.3301v-61.3301h61.3203h61.3301v61.3301zM868.31 238.41v61.3301h-61.3193h-61.3203v-61.3301
v-61.3301h61.3203h61.3193v61.3301z" />
    <glyph glyph-name="uniE03E" unicode="&#xe03e;" 
d="M113.17 787.17c7.66992 2.87012 46.96 3.07031 390.05 2.67969l381.44 -0.379883l9.58008 -4.79004c12.2695 -5.93945 23.7695 -17.4395 29.71 -29.71l4.79004 -9.58008v-445.649v-445.65l-4.79004 -9.58008c-5.94043 -12.2695 -17.4404 -23.7695 -29.71 -29.71
l-9.58008 -4.79004h-384.311h-384.31l-9.58008 4.79004c-12.2695 5.94043 -23.7695 17.4404 -29.71 29.71l-4.79004 9.58008l-0.570312 441.811c-0.379883 400.989 -0.189453 442.77 2.68066 451.21c6.12988 19.1699 20.1201 33.3496 39.0996 40.0596zM807.04 575.75
v92.0098h-306.68h-306.681v-92.0098v-92h306.681h306.68v92zM377.69 238.4v61.3398h-61.3408h-61.3398v-61.3398v-61.3408h61.3398h61.3408v61.3408zM561.7 238.4v61.3398h-61.3398h-61.3408v-61.3398v-61.3408h61.3408h61.3398v61.3408zM745.71 238.4v61.3398h-61.3398
h-61.3398v-61.3398v-61.3408h61.3398h61.3398v61.3408zM377.69 54.3896v61.3408h-61.3408h-61.3398v-61.3408v-61.3398h61.3398h61.3408v61.3398zM561.7 54.3896v61.3408h-61.3398h-61.3408v-61.3408v-61.3398h61.3408h61.3398v61.3398zM745.71 54.3896v61.3408h-61.3398
h-61.3398v-61.3408v-61.3398h61.3398h61.3398v61.3398z" />
    <glyph glyph-name="uniE03F" unicode="&#xe03f;" 
d="M52.2803 786.49c6.7002 2.2998 14.7393 2.87012 34.8594 2.49023c28.5107 -0.380859 31.5703 -1.53027 40.5605 -13.5801c3.83008 -4.9707 4.01953 -8.23047 4.97949 -77.6807c0.950195 -69.4502 1.14062 -72.7002 4.9707 -77.6797
c2.09961 -2.87012 6.30957 -7.08008 9.17969 -9.17969c5.16016 -4.02051 7.26953 -4.02051 108.29 -4.02051c101.02 0 103.12 0 108.29 4.02051c2.87012 2.09961 7.08008 6.30957 9.17969 9.17969c3.83008 4.96973 4.02051 8.22949 4.98047 77.6797
c0.949219 69.4502 1.13965 72.71 4.96973 77.6807c2.09961 2.86914 6.30957 7.08008 9.17969 9.17969c5.16016 4.01953 7.27051 4.01953 108.29 4.01953c101.021 0 103.13 0 108.29 -4.01953c2.87012 -2.09961 7.08984 -6.31055 9.19043 -9.17969
c3.81934 -4.9707 4.00977 -8.23047 4.96973 -77.6807c0.950195 -69.4502 1.13965 -72.7002 4.96973 -77.6797c2.11035 -2.87012 6.32031 -7.08008 9.19043 -9.17969c5.16016 -4.02051 7.26953 -4.02051 108.29 -4.02051c101.02 0 103.13 0 108.29 4.02051
c2.87012 2.09961 7.08984 6.30957 9.18945 9.17969c3.82031 4.96973 4.01074 8.22949 4.9707 77.6797c0.950195 69.4502 1.13965 72.71 4.96973 77.6807c9.17969 12.4297 11.6699 13.1992 43.4297 13.1992c27.1699 0 29.6602 -0.379883 38.6504 -4.7793
c12.25 -5.93066 23.7295 -17.4102 29.6602 -29.6602l4.7793 -9.57031l0.580078 -130.49l0.570312 -130.68h-490h-490l0.570312 130.68c0.569336 109.631 0.949219 131.45 3.43945 136.23c9 18.5596 21.0498 29.8496 38.2705 36.1602zM212.05 786.87
c4.40039 2.11035 15.2998 2.49023 45.3506 2.11035c43.4395 -0.380859 44.3896 -0.760742 53.96 -13.5801c3.83008 -4.98047 4.01953 -7.85059 4.01953 -47.0703c0 -46.1104 -0.189453 -46.4902 -13.2002 -56.25c-4.97949 -3.83008 -7.83984 -4.01953 -47.0693 -4.01953
c-39.2305 0 -42.0908 0.189453 -47.0703 4.01953c-12.8203 9.37012 -13.21 10.9004 -13.7803 51.0801c-0.389648 20.2803 -0.200195 39.4199 0.570312 42.8594c1.33984 7.65039 9.37988 17.4102 17.2197 20.8506zM701.86 786.87
c4.39941 2.11035 15.2998 2.49023 45.3496 2.11035c43.4297 -0.380859 44.3799 -0.760742 53.9502 -13.5801c3.83008 -4.98047 4.01953 -7.85059 4.01953 -47.0703c0 -46.1104 -0.189453 -46.4902 -13.1992 -56.25c-4.98047 -3.83008 -7.85059 -4.01953 -47.0703 -4.01953
c-39.2305 0 -42.1006 0.189453 -47.0703 4.01953c-12.8096 9.37012 -13.2002 10.9004 -13.7695 51.0801c-0.390625 20.2803 -0.200195 39.4199 0.569336 42.8594c1.34082 7.65039 9.37988 17.4102 17.2207 20.8506zM10.5703 138.64l-0.379883 283.551h489.81h489.82
l-0.380859 -283.551l-0.579102 -283.75l-4.78027 -9.56934c-5.92969 -12.25 -17.4102 -23.7305 -29.6602 -29.6602l-9.57031 -4.78027h-444.85h-444.85l-9.57031 4.78027c-12.25 5.92969 -23.7305 17.4102 -29.6602 29.6602l-4.78027 9.56934zM689.99 297.06
c-8.03027 3.4502 -15.4902 3.4502 -22.5703 -0.379883c-3.05957 -1.5293 -54.3398 -52.04 -113.67 -111.92l-107.91 -109.06l-56.6299 56.4395c-62.9502 62.75 -62.7598 62.5605 -78.8301 55.1006c-9.75977 -4.40039 -50.1299 -44.3906 -53.1895 -52.8105
c-3.06055 -8.04004 -2.49023 -16.8398 1.5293 -23.1494c2.11035 -3.07031 41.9004 -44.2002 88.5898 -91.2705c76.1504 -76.9102 85.5205 -85.71 92.0303 -86.8594c16.6406 -2.87012 11.8604 -7.08008 162.63 145.22c151.351 152.88 145.42 146.37 141.971 162.25
c-1.7207 7.83984 -44.3809 52.4199 -53.9502 56.4395z" />
    <glyph glyph-name="uniE040" unicode="&#xe040;" 
d="M52.2803 786.49c6.7002 2.2998 14.7393 2.87012 34.8594 2.5c28.5107 -0.379883 31.5703 -1.53027 40.5605 -13.5801c3.83008 -4.96973 4.01953 -8.23047 4.97949 -77.6797c0.950195 -69.4502 1.14062 -72.7002 4.9707 -77.6807
c2.09961 -2.87012 6.30957 -7.08008 9.17969 -9.17969c5.16016 -4.02051 7.26953 -4.02051 108.29 -4.02051c101.02 0 103.12 0 108.29 4.02051c2.87012 2.09961 7.08008 6.30957 9.17969 9.17969c3.83008 4.96973 4.02051 8.23047 4.98047 77.6807
c0.949219 69.4492 1.13965 72.71 4.96973 77.6797c2.09961 2.87012 6.30957 7.08008 9.17969 9.17969c5.16016 4.02051 7.27051 4.02051 108.29 4.02051c101.021 0 103.13 0 108.29 -4.02051c2.87012 -2.09961 7.08984 -6.30957 9.19043 -9.17969
c3.81934 -4.96973 4.00977 -8.23047 4.96973 -77.6797c0.950195 -69.4502 1.13965 -72.7002 4.96973 -77.6807c2.11035 -2.87012 6.32031 -7.08008 9.19043 -9.17969c5.16016 -4.02051 7.26953 -4.02051 108.29 -4.02051c101.02 0 103.13 0 108.29 4.02051
c2.87012 2.09961 7.08984 6.30957 9.18945 9.17969c3.82031 4.96973 4.01074 8.23047 4.9707 77.6807c0.950195 69.4492 1.13965 72.71 4.96973 77.6797c9.17969 12.4297 11.6699 13.2002 43.4297 13.2002c27.1699 0 29.6602 -0.379883 38.6504 -4.78027
c12.25 -5.92969 23.7295 -17.4102 29.6602 -29.6602l4.7793 -9.57031l0.580078 -99.8799l0.570312 -100.069h-490h-490l0.570312 100.06c0.379883 82.6602 1.13965 100.84 3.43945 105.62c9 18.5596 21.0498 29.8496 38.2705 36.1602zM212.05 786.87
c4.40039 2.11035 15.2998 2.49023 45.3506 2.11035c43.4395 -0.380859 44.3896 -0.760742 53.96 -13.5801c3.83008 -4.98047 4.01953 -7.85059 4.01953 -47.0703c0 -46.1104 -0.189453 -46.4902 -13.2002 -56.25c-4.97949 -3.83008 -7.83984 -4.01953 -47.0693 -4.01953
c-39.2305 0 -42.0908 0.189453 -47.0703 4.01953c-12.8203 9.37012 -13.21 10.9004 -13.7803 51.0801c-0.389648 20.2803 -0.200195 39.4199 0.570312 42.8594c1.33984 7.65039 9.37988 17.4102 17.2197 20.8506zM701.86 786.87
c4.39941 2.11035 15.2998 2.49023 45.3496 2.11035c43.4297 -0.380859 44.3799 -0.760742 53.9502 -13.5801c3.83008 -4.98047 4.01953 -7.85059 4.01953 -47.0703c0 -46.1104 -0.189453 -46.4902 -13.1992 -56.25c-4.98047 -3.83008 -7.85059 -4.01953 -47.0703 -4.01953
c-39.2305 0 -42.1006 0.189453 -47.0703 4.01953c-12.8096 9.37012 -13.2002 10.9004 -13.7695 51.0801c-0.390625 20.2803 -0.200195 39.4199 0.569336 42.8594c1.34082 7.65039 9.37988 17.4102 17.2207 20.8506zM10.5703 169.25l-0.379883 314.17h489.81h489.82
l-0.380859 -314.17l-0.579102 -314.36l-4.78027 -9.56934c-5.92969 -12.25 -17.4102 -23.7305 -29.6602 -29.6602l-9.57031 -4.78027h-444.85h-444.85l-9.57031 4.78027c-12.25 5.92969 -23.7305 17.4102 -29.6602 29.6602l-4.78027 9.56934zM316.32 238.52h0.00976562
v61.2305h-61.2305h-61.2295v-61.2305v-61.2295h61.2295h61.2207v61.2295zM561.23 238.52v61.2305h-61.2305h-61.2305v-61.2305v-61.2295h61.2305h61.2305v61.2295zM806.13 238.52v61.2305h-61.2295h-61.2305v-61.2305v-61.2295h61.2305h61.2295v61.2295zM316.32 54.8398
h0.00976562v61.2305h-61.2305h-61.2295v-61.2305v-61.2295h61.2295h61.2207v61.2295zM561.23 54.8398v61.2305h-61.2305h-61.2305v-61.2305v-61.2295h61.2305h61.2305v61.2295zM806.13 54.8398v61.2305h-61.2295h-61.2305v-61.2305v-61.2295h61.2305h61.2295v61.2295z" />
    <glyph glyph-name="uniE041" unicode="&#xe041;" 
d="M52.0996 786.59c6.7002 2.29004 14.7402 2.87012 34.8398 2.5c28.5107 -0.389648 31.5801 -1.5293 40.5703 -13.5898c3.83008 -4.98047 4.02051 -8.23047 4.98047 -77.7002s1.14941 -72.7197 4.97949 -77.7002c2.11035 -2.87988 6.32031 -7.08984 9.19043 -9.18945
c5.16016 -4.02051 7.25977 -4.02051 108.31 -4.02051s103.15 0 108.32 4.02051c2.87988 2.10938 7.08984 6.32031 9.18945 9.18945c3.83008 4.98047 4.02051 8.23047 4.98047 77.7002s1.15039 72.7197 4.97949 77.7002c2.11035 2.87988 6.32031 7.08984 9.19043 9.19043
c5.16016 4.01953 7.27051 4.01953 108.31 4.01953c101.04 0 103.141 0 108.311 -4.01953c2.87012 -2.11035 7.08008 -6.32031 9.18945 -9.19043c3.82031 -4.98047 4.02051 -8.23047 4.9707 -77.7002s1.13965 -72.7197 4.96973 -77.7002
c2.11035 -2.87988 6.32031 -7.08984 9.19043 -9.18945c5.15918 -4.02051 7.26953 -4.02051 108.31 -4.02051s103.14 0 108.31 4.02051c2.87012 2.10938 7.08008 6.32031 9.19043 9.18945c3.82031 4.98047 4.02051 8.23047 4.96973 77.7002
c0.950195 69.4697 1.14062 72.7197 4.9707 77.7002c9.18945 12.4297 11.6699 13.2002 43.4395 13.2002c27.1807 0 29.6602 -0.379883 38.6602 -4.78027c12.25 -5.92969 23.7305 -17.4102 29.6602 -29.6602l4.78027 -9.56934l0.569336 -99.9004l0.570312 -100.09h-490.1
h-489.9v96.6396c0 84.0098 0.379883 97.6006 3.05957 105.641c6.51074 18.9395 20.0908 32.7197 39.04 39.6094zM211.89 786.97c4.41016 2.10059 15.3105 2.49023 45.3604 2.10059c43.4404 -0.390625 44.4004 -0.770508 53.9697 -13.5898
c3.83008 -4.98047 4.02051 -7.85059 4.02051 -47.0801c0 -46.1201 -0.19043 -46.5 -13.2002 -56.2607c-4.98047 -3.83008 -7.84961 -4.01953 -47.0801 -4.01953c-39.2295 0 -42.0996 0.189453 -47.0801 4.01953c-12.8203 9.37988 -13.21 10.9102 -13.7803 51.1006
c-0.389648 20.29 -0.199219 39.4199 0.570312 42.8701c1.33984 7.65918 9.37012 17.4092 17.2197 20.8594zM701.8 786.97c4.40039 2.10059 15.3105 2.49023 45.3701 2.10059c43.4404 -0.390625 44.4004 -0.770508 53.9697 -13.5898
c3.83008 -4.98047 4.02051 -7.85059 4.02051 -47.0801c0 -46.1201 -0.200195 -46.5 -13.21 -56.2607c-4.98047 -3.83008 -7.85059 -4.01953 -47.0801 -4.01953c-39.2305 0 -42.1104 0.189453 -47.0801 4.01953c-12.8203 9.37988 -13.21 10.9102 -13.7803 51.1006
c-0.389648 20.29 -0.200195 39.4199 0.570312 42.8701c1.33984 7.65918 9.37012 17.4092 17.2197 20.8594zM10.3799 169.23l-0.379883 314.229h489.9h489.89l-0.379883 -314.229l-0.570312 -314.421l-4.78027 -9.56934c-5.92969 -12.25 -17.4092 -23.7305 -29.6592 -29.6602
l-9.57031 -4.78027h-444.93h-444.94l-9.57031 4.78027c-12.25 5.92969 -23.7295 17.4102 -29.6592 29.6602l-4.78027 9.56934zM302.03 294.77c-4.78027 3.63086 -8.23047 4.02051 -44.79 4.41016c-43.6299 0.570312 -47.46 -0.189453 -56.4502 -10.7197
c-6.88965 -8.21973 -7.46973 -12.8203 -6.7002 -55.1104c0.580078 -40.1895 0.959961 -41.7197 13.7803 -51.0996c4.97949 -3.83008 7.84961 -4.01953 47.0801 -4.01953c39.2295 0 42.0996 0.189453 47.0801 4.01953c13.0098 9.75977 13.2002 10.1396 13.2002 56.2598
s-0.19043 46.5 -13.2002 56.2598zM791.93 294.77c-5.16016 4.02051 -6.68945 4.02051 -197.87 4.41016c-210.319 0.570312 -199.6 0.950195 -209.55 -10.7197c-6.88965 -8.21973 -7.46973 -12.8203 -6.7002 -55.1104c0.580078 -40.1895 0.959961 -41.7197 13.7803 -51.0996
c5.16992 -4.01953 6.31055 -4.01953 200.17 -4.01953c193.86 0 195 0 200.17 4.01953c13.0205 9.75977 13.21 10.1396 13.21 56.2598s-0.199219 46.5 -13.21 56.2598zM302.03 111.05c-4.78027 3.64062 -8.23047 4.02051 -44.79 4.41016
c-43.6299 0.570312 -47.46 -0.19043 -56.4502 -10.7197c-6.88965 -8.23047 -7.46973 -12.8203 -6.7002 -55.1104c0.580078 -40.1895 0.959961 -41.7197 13.7803 -51.0996c4.97949 -3.83008 7.84961 -4.02051 47.0801 -4.02051c39.2295 0 42.0996 0.19043 47.0801 4.02051
c13.0098 9.75977 13.2002 10.1396 13.2002 56.2598s-0.19043 46.5 -13.2002 56.2598zM791.93 111.05c-5.16016 4.02051 -6.68945 4.02051 -197.87 4.41016c-210.319 0.570312 -199.6 0.950195 -209.55 -10.7197c-6.88965 -8.23047 -7.46973 -12.8203 -6.7002 -55.1104
c0.580078 -40.1895 0.959961 -41.7197 13.7803 -51.0996c5.16992 -4.02051 6.31055 -4.02051 200.17 -4.02051c193.86 0 195 0 200.17 4.02051c13.0205 9.75977 13.21 10.1396 13.21 56.2598s-0.199219 46.5 -13.21 56.2598z" />
    <glyph glyph-name="uniE042" unicode="&#xe042;" 
d="M212.71 785.49c9.58984 4.7998 10.9297 4.99023 46.96 5c42.96 0 46.6006 -0.959961 52.5498 -14c2.68066 -6.14062 3.64062 -12.6602 3.64062 -27.6201v-19.75h61.1797h61.1797l0.770508 20.8994c0.580078 22.6309 2.2998 27.04 13.8096 35.4805
c4.99023 3.83984 7.87012 4.03027 47.1807 4.03027c39.3193 0 42.1895 -0.19043 47.1797 -4.03027c11.5098 -8.44043 13.2295 -12.8496 13.8096 -35.4805l0.770508 -20.8994h61.1797h61.1797v19.75c0 14.96 0.950195 21.4795 3.64062 27.6201
c5.9502 13.04 9.58984 14 52.5498 14c36.0596 0 37.4004 -0.200195 46.9902 -4.99023c15.54 -7.66992 18.4102 -13.2305 19.1797 -36.6299l0.770508 -19.5605l66.3594 -0.579102l66.5498 -0.580078l10.9307 -5.18066c13.8096 -6.51953 27.4199 -18.79 33.75 -31.2598
l5.17969 -9.58984v-413.29v-413.29l-5.17969 -9.58984c-6.33008 -12.4697 -19.9404 -24.7402 -33.75 -31.2598l-10.9307 -5.18066h-440.14h-440.15l-10.9297 5.18066c-13.7998 6.51953 -27.4199 18.79 -33.75 31.2598l-5.17969 9.58984v413.29v413.28l5.17969 9.58984
c6.33008 12.4697 19.9404 24.7402 33.75 31.2598l10.9297 5.17969l66.5508 0.580078l66.3594 0.580078l0.770508 19.5605c0.769531 23.3994 3.64941 28.96 19.1797 36.6299zM193.53 586.811l-0.770508 19.5596h-30.4902h-30.4893v-92.0605v-92.0498h368.22h368.24v92.0498
v92.0605h-30.4902h-30.4902l-0.769531 -19.5596c-0.770508 -23.5908 -3.64062 -29.1504 -19.1807 -36.8203c-9.58984 -4.7998 -10.9395 -4.99023 -46.9893 -4.99023c-42.96 0 -46.6006 0.959961 -52.5508 14c-2.67969 6.13965 -3.63965 12.6602 -3.63965 27.8105v19.5596
h-61.1797h-61.1807l-0.769531 -20.9004c-0.580078 -22.6299 -2.2998 -27.04 -13.8096 -35.4795c-4.99023 -3.83984 -7.87012 -4.03027 -47.1807 -4.03027c-39.3193 0 -42.1895 0.19043 -47.1797 4.03027c-11.5098 8.43945 -13.2402 12.8496 -13.8105 35.4795
l-0.769531 20.9004h-61.1797h-61.1807v-19.5596c0 -15.1504 -0.949219 -21.6709 -3.63965 -27.8105c-5.9502 -13.04 -9.58984 -14 -52.5498 -14c-36.0605 0 -37.4004 0.200195 -46.9902 4.99023c-15.54 7.66992 -18.4102 13.2295 -19.1797 36.8203zM315.89 238.15v61.3691
h-61.3701h-61.3691v-61.3691v-61.3701h61.3691h61.3701v61.3701zM561.37 238.15v61.3691h-61.3701h-61.3701v-61.3691v-61.3701h61.3701h61.3701v61.3701zM806.85 238.15v61.3691h-61.3691h-61.3701v-61.3691v-61.3701h61.3701h61.3691v61.3701zM315.89 -7.33008v61.3701
h-61.3701h-61.3691v-61.3701v-61.3701h61.3691h61.3701v61.3701zM561.37 -7.33008v61.3701h-61.3701h-61.3701v-61.3701v-61.3701h61.3701h61.3701v61.3701zM806.85 -7.33008v61.3701h-61.3691h-61.3701v-61.3701v-61.3701h61.3701h61.3691v61.3701z" />
    <glyph glyph-name="uniE043" unicode="&#xe043;" 
d="M456.92 788.55c18.1904 1.53027 71.2305 1.15039 94.9805 -0.569336c117.569 -9.19043 246.05 -47.3008 365.909 -108.57c24.7002 -12.6406 29.8701 -16.0898 40.21 -27.1904c13.4004 -14.1699 24.6904 -34.6592 29.29 -53.2295
c2.49023 -9.9502 3.06055 -22.5898 2.49023 -71.7998c-0.569336 -59.3604 -0.569336 -59.9404 -5.35938 -69.5107c-5.94043 -12.2598 -17.4209 -23.7393 -29.6807 -29.6797c-9.37988 -4.79004 -10.3398 -4.79004 -56.4795 -4.79004c-46.1504 0 -47.1104 0 -56.4902 4.79004
c-12.2598 5.94043 -23.75 17.4297 -29.6797 29.6797l-4.79004 9.57031l-0.959961 77.5498l-0.959961 77.5498l-4.79004 9.57031c-5.94043 12.2598 -17.4199 23.7402 -29.6807 29.6797l-9.56934 4.79004h-261.36h-261.35l-9.57031 -4.79004
c-12.2598 -5.93945 -23.7402 -17.4297 -29.6797 -29.6797l-4.79004 -9.57031l-0.959961 -77.5498l-0.959961 -77.5498l-5.16992 -9.76953c-7.66016 -14.5508 -13.4102 -20.4805 -26.8105 -27.7607l-12.0596 -6.50977h-46.9102c-46.1504 0 -47.1104 0 -56.4902 4.79004
c-12.2598 5.94043 -23.7402 17.4297 -29.6797 29.6797c-4.79004 9.58008 -4.79004 10.1504 -5.36035 69.5107c-0.570312 49.21 0 61.8398 2.49023 71.7998c4.59961 18.7598 15.8896 39.0596 29.6797 53.6094c11.6797 12.6406 14.1699 14.1699 54.5703 33.8906
c107.99 53.04 222.87 88.0801 323.59 98.4199c15.8896 1.71973 32.1699 3.25977 36.3799 3.63965zM359.65 542.69c4.01953 0.959961 67.9697 1.72949 144.18 1.5293l136.91 -0.379883l9.56934 -4.39941c11.4902 -5.1709 22.6006 -15.7002 28.3408 -26.2305
c4.01953 -7.46973 4.20996 -10.3398 5.16992 -85.21c1.13965 -83.8701 1.13965 -83.0996 12.25 -102.43c2.86914 -4.78027 8.80957 -11.29 13.0195 -14.5508c14.9297 -10.7295 20.29 -11.2998 96.1201 -11.2998c72.5703 0 79.6504 -0.769531 95.9297 -9.18945
c9 -4.60059 18.1904 -13.79 23.1699 -23.3604c3.4502 -6.50977 3.64062 -15.3203 3.64062 -209.67v-202.98l-4.79004 -9.56934c-5.94043 -12.2598 -17.4297 -23.75 -29.6797 -29.6807l-9.57031 -4.78906h-383.91h-383.91l-9.57031 4.78906
c-12.2598 5.94043 -23.7393 17.4209 -29.6797 29.6807l-4.79004 9.56934l-0.569336 198.181c-0.390625 137.87 0.189453 201.24 1.71973 208.33c2.87012 14.1699 11.4902 24.8896 25.6602 31.9795l11.4893 5.74023l77.5508 0.959961l77.5498 0.959961l10.9102 5.16992
c14.5498 6.7002 28.7197 20.29 34.2695 32.7402c4.58984 9.75977 4.58984 11.0996 5.5498 88.46c1.15039 87.5 0.580078 83.8604 15.1299 99.1797c7.66016 8.24023 17.4307 13.9805 28.3408 16.4707zM544.23 294.16c-18.9609 5.16992 -57.0605 6.50977 -76.2109 2.87012
c-72.9492 -13.9805 -129.239 -67.4004 -147.43 -140.16c-4.59961 -18.1904 -4.59961 -63.7598 0 -81.9502c17.04 -68.1699 66.8203 -118.72 135.18 -137.479c21.0605 -5.94043 67.4004 -5.94043 88.4609 0c68.3496 18.7598 118.14 69.3096 135.18 137.479
c4.58984 18.1904 4.58984 63.7598 0 81.9502c-17.04 68.1699 -67.5898 119.67 -135.18 137.29z" />
    <glyph glyph-name="uniE044" unicode="&#xe044;" 
d="M187.13 788.49c13.9902 3.83008 32.2002 2.10938 46.5898 -4.61035c13.4102 -6.51953 21.0801 -13.7998 87.6006 -85.1104c44.2793 -47.3496 46.7695 -50.4092 52.1396 -64.7891c8.24023 -22.2402 6.32031 -49.2705 -5.17969 -68.6309
c-2.49023 -4.40918 -18.9707 -23.3799 -36.6104 -42.1699c-24.1504 -25.8799 -33.1602 -36.9893 -37.3799 -45.6201c-7.48047 -16.29 -9.96973 -30.8594 -7.48047 -46.5791c4.20996 -26.6504 -0.189453 -21.2803 173.681 -206.841
c151.05 -161.22 160.83 -171.38 172.52 -177.13c22.4297 -10.9297 47.9199 -9.58984 68.2402 3.83008c4.7998 3.25977 22.4297 20.5098 39.1104 38.5303c16.6797 17.8301 34.3193 35.0801 39.2998 38.3398c4.97949 3.07031 14.7598 7.08984 21.8496 9.00977
c10.9297 2.69043 14.7598 2.69043 25.8799 0.770508c22.6201 -4.03027 27.4102 -8.24023 89.9004 -74.5703c31.4404 -33.54 59.6201 -64.79 62.2998 -69.5801c11.7002 -19.75 13.6104 -46.5801 5.37012 -69.0098c-5.36035 -14.3799 -6.70996 -16.1006 -55.7803 -68.6299
l-43.1299 -46.2002h-124.41h-124.409l-16.4902 8.82031c-73.2305 39.4893 -158.15 99.4893 -228.69 161.409c-165.81 145.301 -302.68 352.33 -373.609 564.921c-6.90039 20.8994 -8.24023 27.4199 -8.43066 40.2598c0 16.0996 3.4502 28.9502 11.3105 40.4502
c2.2998 3.25977 34.5 38.3398 71.6895 78.21c69.0098 73.4199 76.1006 79.7402 94.1201 84.9199z" />
    <glyph glyph-name="uniE045" unicode="&#xe045;" 
d="M296.71 756.75c7.66992 2.87012 30.2998 3.07031 206.17 2.67969l197.53 -0.379883l9.58984 -4.79004c12.2803 -5.94922 23.7803 -17.46 29.7305 -29.7295c4.59961 -9.02051 4.78906 -11.7002 5.36914 -48.3301l0.570312 -38.7305l100.11 -0.580078l100.109 -0.580078
l9.59082 -4.79004c12.2793 -5.94922 23.7891 -17.46 29.7295 -29.7295l4.79004 -9.58984v-353.84v-353.841l-4.79004 -9.58984c-5.9502 -12.2793 -17.46 -23.7793 -29.7295 -29.7295l-9.59082 -4.79004h-445.89h-445.89l-9.59082 4.79004
c-12.2793 5.9502 -23.7793 17.46 -29.7295 29.7295l-4.79004 9.58984v353.841v353.84l4.79004 9.58008c5.9502 12.2803 17.46 23.7803 29.7305 29.7295l9.58984 4.79004l100.3 0.580078l100.109 0.580078v35.29c0 27.6104 0.770508 37.3896 3.07031 44.4902
c6.52051 18.9902 20.1299 32.9902 39.1201 39.5098zM551.78 508.97c-15.9199 3.64062 -63.4805 6.33008 -78.6406 4.40039c-56.5801 -7.29004 -107.21 -31.8301 -146.52 -71.3398c-34.5205 -34.9004 -56.96 -76.3301 -67.5098 -125.04
c-4.99023 -22.8203 -4.99023 -73.0703 0 -95.8906c10.3594 -48.1299 33.75 -91.4795 66.7393 -124.08c18.2207 -17.8291 23.0107 -21.8594 38.9307 -32.5996c37.5898 -25.3096 89.1797 -40.8496 135.21 -40.8496c35.8701 0 78.6299 10.3594 110.66 26.6602
c107.979 55.0391 160.33 180.85 122.359 294.96c-27.8096 83.4199 -94.9297 144.029 -181.229 163.779zM473.15 388.72c87.4492 18.7998 164.93 -58.1094 146.71 -145.56c-9.59082 -45.6406 -48.3301 -84.3799 -93.9707 -93.9697
c-87.0596 -18.2207 -163.97 58.6797 -145.75 145.75c9.39062 45.0693 48.1299 84.1895 93.0107 93.7793z" />
    <glyph glyph-name="uniE046" unicode="&#xe046;" 
d="M318.75 787.33c11.6904 3.25977 367.1 3.63965 378.2 0.570312c8.82031 -2.49023 21.46 -13.2207 26.0596 -22.6104c6.70996 -13.2197 7.86035 -25.8701 7.86035 -87.3701v-60.1602l92.54 -0.569336l92.3496 -0.570312l10.7305 -4.98047
c12.6396 -5.93945 22.9902 -16.0996 28.9297 -28.3594l4.41016 -8.81055v-361.16v-361.159l-4.02051 -8.81055c-5.93945 -12.6396 -14.9492 -21.8398 -27.21 -27.9697l-10.9199 -5.36035h-417.68h-417.68l-10.9199 5.36035
c-12.2705 6.12988 -21.2705 15.3203 -27.21 27.9697l-4.02051 8.81055v361.159v361.15l4.41016 8.80957c5.93945 12.0703 16.4697 22.4209 29.1201 28.3604l10.54 5l92.54 0.570312l92.3496 0.569336v59.0107c0 68.5898 0.759766 72.6094 14.5605 88.1299
c10.1494 11.1201 22.2197 18.9697 35.0596 22.4199zM615.53 645.93l-0.580078 28.1699l-114.19 0.570312c-62.6494 0.19043 -114.77 -0.189453 -115.34 -0.959961c-0.769531 -0.580078 -1.33984 -13.5996 -1.33984 -28.7402v-27.3994h115.92h116.1zM538.51 440.35
c-20.8799 3.64062 -58.0498 3.4502 -78.7402 -0.189453c-54.9893 -9.77051 -108.06 -41.96 -141.59 -85.6406c-32.1895 -42.1494 -47.5195 -87.1797 -47.71 -140.25c-0.379883 -66.29 23.7598 -123 71.6602 -168.6c43.4902 -41.3799 97.3301 -62.8398 157.87 -62.8398
c47.1299 0 87.75 12.0703 128.37 38.5098c17.2402 11.2998 51.3496 45.4102 62.6494 62.6504c17.4404 27.0098 29.3203 56.1396 35.4502 86.5996c3.83008 20.4902 4.40039 60.54 0.760742 81.04c-8.43066 47.71 -30.6504 90.2402 -65.3301 124.54
c-34.6807 34.4805 -76.0703 55.9404 -123.391 64.1797zM474.52 325.39c64.7607 13.9902 127.221 -27.7793 138.721 -92.9297c10.3398 -58.4297 -27.21 -116.3 -84.8799 -131.24c-13.9805 -3.63965 -42.7207 -3.63965 -56.71 0
c-37.5605 9.77051 -69.1699 39.6602 -81.0508 76.6406c-6.12988 18.96 -6.89941 45.0195 -1.91992 63.9893c10.7305 41.0107 45.4102 74.7305 85.8398 83.54z" />
    <glyph glyph-name="uniE047" unicode="&#xe047;" 
d="M173.97 787.87c7.66992 2.87988 41.4307 3.07031 328.92 2.67969l320.271 -0.379883l9.58984 -4.79004c12.2695 -5.93945 23.7803 -17.6396 29.3398 -29.1494c3.07031 -6.90039 10.9297 -49.29 31.0703 -170.11c14.7695 -88.79 26.8496 -161.48 26.8496 -161.86
c0 -0.580078 5.75 -1.34961 13.04 -1.72949c22.8203 -1.73047 42 -14.5801 52.1602 -35.1006l4.79004 -9.58984v-169.72v-169.73l-4.79004 -9.58984c-9.02051 -18.4102 -27.8096 -32.21 -46.9902 -34.8994l-8.62988 -1.15039v-51.0098
c0 -39.1299 -0.580078 -53.7002 -2.87988 -62.1406c-8.62988 -33.1797 -34.1299 -58.8799 -67.1201 -67.5098c-48.1299 -12.46 -98.3799 18.0303 -111.229 67.5098c-2.30078 8.44043 -2.87988 23.0107 -2.87988 62.3301v51.4004h-245.48h-245.48v-51.4004
c0 -39.3193 -0.579102 -53.8896 -2.87988 -62.3301c-8.62988 -33.1797 -34.1299 -58.8799 -67.1201 -67.5098c-48.1299 -12.46 -98.3799 18.0303 -111.229 67.5098c-2.30957 8.44043 -2.87988 23.0205 -2.87988 62.1406v51.0098l-8.62988 1.15039
c-19.1807 2.67969 -37.9805 16.4893 -46.9902 34.8994l-4.79004 9.58984v169.73v169.72l4.79004 9.58008c10.1699 20.5303 29.3496 33.3701 52.3604 35.0996c7.09961 0.390625 12.8496 1.15039 12.8496 1.73047c0 5.75977 54.2695 324.11 56 327.95
c7.28027 17.0693 20.9004 29.7295 37.9697 35.6699zM756.03 662.25l-1.12988 6.13965h-254.881c-140.39 0 -255.069 -0.389648 -255.069 -0.959961c0 -0.569336 -9.00977 -55.4199 -20.1406 -121.779c-11.1299 -66.3604 -20.1396 -121.21 -20.1396 -121.78
c0 -0.580078 132.9 -0.959961 295.34 -0.959961c162.44 0 295.34 0.389648 295.34 0.769531c0 0.950195 -37.0195 225.15 -39.3193 238.57zM240.33 295.19c-4.7998 3.63965 -8.25 4.01953 -44.8799 4.39941c-43.7305 0.580078 -47.5703 -0.189453 -56.5801 -10.7402
c-6.90039 -8.23926 -7.48047 -12.8496 -6.70996 -55.2295c0.580078 -40.2705 0.959961 -41.7998 13.8096 -51.2002c4.99023 -3.83984 7.86035 -4.03027 47.1807 -4.03027c39.3193 0 42.1895 0.200195 47.1797 4.03027c13.04 9.78027 13.2295 10.1602 13.2295 56.3799
s-0.189453 46.6006 -13.2295 56.3906zM854.03 295.19c-4.7998 3.63965 -8.25 4.01953 -44.8799 4.39941c-43.7305 0.580078 -47.5703 -0.189453 -56.5801 -10.7402c-6.90039 -8.23926 -7.48047 -12.8496 -6.70996 -55.2295
c0.580078 -40.2705 0.959961 -41.7998 13.8096 -51.2002c4.99023 -3.83984 7.86035 -4.03027 47.1797 -4.03027c39.3203 0 42.1904 0.200195 47.1807 4.03027c13.04 9.78027 13.2295 10.1602 13.2295 56.3799s-0.189453 46.6006 -13.2295 56.3906z" />
    <glyph glyph-name="uniE048" unicode="&#xe048;" 
d="M51.3203 787.61c7.66992 2.68945 53.5 3.06934 447.95 3.25c399.439 0 440.29 -0.19043 449.109 -3.07031c14.5801 -4.79004 26.8506 -15.1504 34.71 -29.5303l6.90039 -12.46v-200.39v-200.39l-4.79004 -9.59082c-5.94043 -12.2695 -17.4502 -23.7695 -29.7197 -29.7197
l-9.59082 -4.79004l-345.56 -0.570312l-345.75 -0.379883v-61.3594v-61.3604l346.71 -0.379883l346.52 -0.580078l8.82031 -4.03027c12.6602 -5.93945 21.8604 -14.96 28 -27.2295c4.60059 -9.58984 5.37012 -13.2305 5.37012 -28.1904s-0.769531 -18.5996 -5.17969 -27.04
c-7.66992 -14.5801 -13.4307 -20.5195 -26.8506 -27.8096l-12.0801 -6.52051l-380.649 -0.580078c-423.98 -0.569336 -390.62 -1.5293 -409.41 12.6602c-6.13965 4.60059 -11.7002 11.3105 -16.1104 19.5605l-6.89941 12.46l-0.580078 284.189l-0.379883 284
l-38.9307 0.770508c-36.4297 0.580078 -39.3096 0.959961 -48.3193 5.37012c-12.2705 5.93945 -23.7803 17.4492 -29.7207 29.7197c-5.55957 11.5 -6.51953 35.8604 -2.10938 46.9795c7.2793 17.8301 20.8994 30.8701 38.54 37.0107zM262.45 -9.92969
c48.1299 13.04 99.1396 -17.6406 111.99 -67.3105c12.46 -47.75 -18.0303 -97.9902 -67.1201 -110.84c-48.1299 -12.46 -98.3701 18.0303 -111.221 67.1201c-12.2695 47.5498 17.8301 97.9902 66.3506 111.03zM814.73 -9.92969
c48.1299 13.04 99.1396 -17.6406 111.989 -67.3105c12.46 -47.75 -18.0293 -97.9902 -67.1201 -110.84c-48.1299 -12.46 -98.3691 18.0303 -111.22 67.1201c-12.2695 47.5498 17.8301 97.9902 66.3506 111.03z" />
    <glyph glyph-name="uniE049" unicode="&#xe049;" 
d="M51.6104 787.15c9.38965 3.25977 31.8193 3.44922 454.199 3.62988c439.46 0 444.44 0 454.601 -3.83008c16.8799 -6.32031 27.6094 -20.7002 29.5293 -39.1104c0.770508 -8.43945 -5.55957 -34.8896 -47.1592 -193.84c-26.6504 -101.24 -49.8506 -189.63 -51.96 -196.53
c-7.28027 -24.9297 -28.3809 -46.0195 -53.3008 -53.6895c-12.0801 -3.83008 -18.5996 -3.83008 -297.76 -3.83008h-285.49v-61.3506v-61.3496l314.061 -0.379883l313.87 -0.580078l10.9297 -5.37012c46.21 -22.6201 46.21 -87.4297 0 -110.05l-10.9297 -5.37012h-351.83
h-351.83l-10.7402 5.37012c-14.1895 6.89941 -26.8398 20.7002 -32.21 34.5098l-4.03027 11.1201v280.7v280.49l-37.7695 0.769531c-36.2402 0.570312 -38.3496 0.770508 -48.7002 5.55957c-13.04 6.13086 -23.0098 15.9102 -29.9102 29.1406
c-4.41016 8.62988 -5.17969 12.2695 -5.17969 26.2695c0 13.4307 0.769531 17.8398 4.41016 24.9307c9.58984 18.2197 19.1797 26.6494 37.2002 32.79zM262.13 -9.87988c48.1201 13.04 99.1201 -17.6396 111.97 -67.2998c12.46 -47.7402 -18.0293 -97.9707 -67.1094 -110.82
c-48.1201 -12.46 -98.3506 18.0303 -111.2 67.1104c-12.2705 47.5498 17.8301 97.9697 66.3398 111.01zM752.96 -9.87988c48.1299 13.04 99.1299 -17.6396 111.98 -67.2998c12.46 -47.7402 -18.0303 -97.9707 -67.1104 -110.82
c-48.1299 -12.46 -98.3701 18.0303 -111.21 67.1104c-12.2705 47.5498 17.8301 97.9697 66.3398 111.01z" />
    <glyph glyph-name="uniE04A" unicode="&#xe04a;" 
d="M51.6104 787.24c9.39941 3.25977 31.8398 3.45996 454.14 3.66016c477.13 0 453.54 0.569336 467.54 -9.40039c8.62988 -6.13965 15.5303 -19.3701 16.6797 -31.2598c0.759766 -8.44043 -7.09961 -47.3701 -45.0693 -221.11
c-55.4307 -254.67 -50.8203 -234.729 -56.9609 -246.81c-9.7793 -19.1807 -32.5996 -36.6309 -54.6494 -41.6201c-5.57031 -1.33984 -108.55 -2.11035 -293.61 -2.11035h-285.35v-61.3701v-61.3701l315.08 -0.379883l314.89 -0.580078l9.00977 -4.21973
c11.5107 -5.17969 24.3604 -18.0303 30.3008 -30.2998c6.70996 -13.8105 6.70996 -37.9697 0 -51.7803c-5.94043 -12.2695 -17.4502 -23.7803 -29.7207 -29.7197c-9.2002 -4.60059 -11.3096 -4.79004 -57.5293 -5.75c-29.3408 -0.570312 -44.8701 -1.53027 -40.0801 -2.2998
c13.8096 -2.49023 33.75 -14 45.2598 -26.0801c11.8896 -12.4707 19.3701 -25.7002 23.5898 -42c12.46 -47.75 -18.0303 -97.9902 -67.1201 -110.84c-48.1396 -12.4707 -98.3799 18.0195 -111.229 67.5c-12.2803 47.1699 17.8301 97.6094 66.3496 110.649
c9.2002 2.5 -15.7295 2.87988 -222.649 2.87988c-206.921 0 -231.851 -0.389648 -222.65 -2.87988c48.5195 -13.04 78.6201 -63.4795 66.3496 -110.649c-12.8496 -49.4707 -63.0996 -79.9707 -111.229 -67.5c-49.0898 12.8496 -79.5801 63.0898 -67.1201 110.84
c4.21973 16.2998 11.7002 29.54 23.5898 42c11.5098 12.0801 31.4502 23.5898 45.2598 26.0801c4.80078 0.769531 -10.1602 1.71973 -39.1201 2.2998c-46.4092 0.959961 -47.1699 0.959961 -57.7197 6.33008c-12.6602 6.12988 -25.3203 18.9795 -31.0703 31.6396
l-4.21973 9.00977l-0.580078 313.931l-0.379883 313.93l-37.9697 0.580078c-36.0498 0.570312 -38.1602 0.770508 -48.5205 5.55957c-13.04 6.14062 -23.0195 15.9199 -29.9199 29.1504c-4.41016 8.62988 -5.17969 12.2695 -5.17969 26.2695
c0 13.4209 0.769531 17.8301 4.41016 24.9307c9.58984 18.2197 19.1699 26.6494 37.2002 32.79z" />
    <glyph glyph-name="uniE04B" unicode="&#xe04b;" 
d="M51.9199 787.07c7.86035 2.87988 52.5098 3.06934 451.311 2.67969l442.689 -0.379883l9.58008 -4.79004c12.2598 -5.94043 23.7598 -17.4404 29.7002 -29.7002l4.79004 -9.58008v-445.569v-445.561l-4.79004 -9.58008
c-5.94043 -12.2598 -17.4307 -23.7598 -29.7002 -29.7002l-9.58008 -4.79004h-445.56h-445.561l-9.58984 4.79004c-12.2598 5.94043 -23.7598 17.4307 -29.7002 29.7002l-4.79004 9.58008l-0.569336 441.73c-0.390625 400.91 -0.19043 442.689 2.67969 451.119
c6.12988 19.1602 20.1201 33.3408 39.0898 40.0508zM670.15 540.05c-5.16992 4.02051 -6.90039 4.02051 -167.49 4.41016c-177.26 0.580078 -169.22 0.959961 -179.18 -10.7295c-6.90039 -8.24023 -7.48047 -12.8408 -6.71094 -55.1904
c0.580078 -40.25 0.960938 -41.7803 13.8008 -51.1699c5.16992 -4.02051 6.50977 -4.02051 169.79 -4.02051c163.279 0 164.62 0 169.79 4.02051c13.0293 9.76953 13.2197 10.1602 13.2197 56.3398s-0.19043 46.5703 -13.2197 56.3398zM731.48 356.08
c-5.18066 4.01953 -6.33008 4.01953 -228.82 4.40039c-244.15 0.579102 -230.55 1.14941 -240.51 -10.7305c-6.90039 -8.24023 -7.48047 -12.8398 -6.70996 -55.1904c0.579102 -40.25 0.959961 -41.7793 13.7998 -51.1699c5.17969 -4.0293 5.93945 -4.0293 231.12 -4.0293
c225.18 0 225.949 0 231.12 4.0293c13.0293 9.77051 13.2197 10.1504 13.2197 56.3408c0 46.1895 -0.19043 46.5693 -13.2197 56.3496zM670.15 172.1c-5.16992 4.03027 -6.90039 4.03027 -167.49 4.41016c-177.26 0.570312 -169.22 0.959961 -179.18 -10.7295
c-6.90039 -8.24023 -7.48047 -12.8398 -6.71094 -55.1904c0.580078 -40.25 0.960938 -41.7803 13.8008 -51.1699c5.16992 -4.03027 6.50977 -4.03027 169.79 -4.03027c163.279 0 164.62 0 169.79 4.03027c13.0293 9.77051 13.2197 10.1602 13.2197 56.3398
c0 46.1807 -0.19043 46.5703 -13.2197 56.3398z" />
    <glyph glyph-name="uniE04C" unicode="&#xe04c;" 
d="M425.43 787.45c7.48047 2.5 45.2207 2.68945 251.17 2.5l242.36 -0.379883l10.3506 -5.75c12.459 -6.90039 23.3799 -20.1201 28.3594 -33.9102c3.25977 -9.58008 3.4502 -20.8799 3.4502 -207.49v-197.34l-4.98047 -10.54
c-6.88965 -14.75 -15.3193 -23.7598 -28.1592 -30.0801c-10.54 -5.17969 -12.0703 -5.37012 -45.79 -5.94043l-34.8701 -0.769531l-0.580078 -107.68l-0.570312 -107.67l-4.79004 -9.39062c-3.83008 -7.47949 -6.88965 -10.54 -13.79 -13.9902
c-7.66992 -3.8291 -9.76953 -4.21973 -16.4795 -2.2998c-4.2207 0.950195 -9.58008 3.44043 -11.6904 5.36035c-2.2998 1.71973 -31.6104 36.0195 -65.3301 76.0596l-61.1201 72.8008l-0.189453 172.819c0 172.05 0 173.01 -4.02051 183.931
c-5.37012 13.7998 -18.0098 27.5898 -31.04 33.3398l-9.95996 4.59961l-121.279 0.570312l-121.28 0.569336l0.580078 69.3604l0.569336 69.3604l5.36035 10.9199c6.70996 13.6094 21.6504 27.4004 33.7197 31.04zM85.9297 543.17
c4.2207 0.959961 110.551 1.54004 245.811 1.53027l238.529 -0.379883l10.9199 -5.36035c12.2607 -6.12988 20.3105 -14.1797 27.9707 -28.7402l5.16992 -9.95996v-202.13v-202.12l-4.79004 -9.58008c-5.55957 -11.3096 -16.0996 -22.2295 -27.21 -28.1699
c-8.24023 -4.39941 -9.2002 -4.39941 -95.0303 -5.35938l-86.79 -0.959961l-98.0898 -116.681c-54.0303 -64.1797 -100.4 -118.399 -103.08 -120.51c-2.87012 -1.91992 -8.80957 -4.03027 -13.4102 -4.59961c-10.7295 -1.15039 -19.7295 4.59961 -26.6299 16.6699
l-4.79004 8.62012l-0.569336 108.819l-0.580078 108.63h-33.1406c-41 0 -47.1299 1.7207 -62.6494 17.0508c-19.3506 19.54 -18.0107 1.72949 -18.5801 222.439c-0.390625 130.09 0.189453 195.61 1.5293 202.32c4.98047 24.1396 22.8008 43.1094 45.4102 48.4697z" />
    </font>
</defs>
</svg>
